<svg width="17" height="24" viewBox="0 0 17 24" fill="none" xmlns="http://www.w3.org/2000/svg">
<path fill-rule="evenodd" clip-rule="evenodd" d="M2.1989 6.86013C2.50024 6.74643 2.82195 6.63488 3.13641 6.54383C3.52803 6.43044 3.97885 6.32751 4.3872 6.32291C4.83778 6.31393 5.35796 6.42276 5.81674 6.54614C6.29998 6.6761 6.8081 6.84862 7.26248 7.01649C7.71916 7.18522 8.13463 7.35411 8.43531 7.48051L8.51239 7.51303L8.57177 7.48681C8.87264 7.35439 9.2887 7.17773 9.74666 7.00233C10.202 6.82792 10.7133 6.64916 11.2016 6.51703C11.6634 6.39207 12.1971 6.28226 12.6659 6.30546C13.0478 6.32098 13.4789 6.43181 13.8494 6.54712C14.1414 6.63799 14.4435 6.7472 14.7297 6.8584C14.0141 4.0659 11.4822 1.99414 8.46599 1.99414C5.44326 1.99414 2.90966 4.06071 2.1989 6.86013ZM13.2551 8.45677C13.5562 8.55048 13.8886 8.67419 14.2093 8.80333L9.52102 13.567V9.25469C9.78308 9.14125 10.1105 9.00467 10.462 8.87003C10.8837 8.70852 11.3257 8.55536 11.724 8.44759C12.1463 8.33332 12.429 8.29574 12.5683 8.30308L12.5835 8.30376C12.6904 8.30776 12.9153 8.351 13.2551 8.45677ZM6.6086 15.5046C5.08444 16.2134 4.0265 17.7588 4.0265 19.549C4.0265 22.0091 6.02428 24.0069 8.48433 24.0069C10.9444 24.0069 12.9422 22.0091 12.9422 19.549C12.9422 17.775 11.9032 16.2413 10.4012 15.5239L16.6539 9.17075C16.882 8.93895 16.974 8.62408 16.9308 8.32525C16.8539 3.72313 13.0998 -0.00585938 8.46599 -0.00585938C3.78631 -0.00585938 0 3.78046 0 8.46013C0 8.76639 0.140137 9.05346 0.37638 9.24187L6.6086 15.5046ZM7.52102 9.26613V13.5861L2.74931 8.79105C3.06454 8.66827 3.39169 8.55206 3.69263 8.46493C4.03822 8.36487 4.28035 8.32388 4.41128 8.32277L4.42552 8.32255C4.57866 8.31907 4.87286 8.36337 5.29733 8.47752C5.69977 8.58575 6.14553 8.73596 6.56937 8.89255C6.92525 9.02403 7.25657 9.15661 7.52102 9.26613ZM6.0265 19.549C6.0265 18.1936 7.12885 17.0912 8.48433 17.0912C9.83982 17.0912 10.9422 18.1936 10.9422 19.549C10.9422 20.9045 9.83982 22.0069 8.48433 22.0069C7.12885 22.0069 6.0265 20.9045 6.0265 19.549Z" fill="#A9B6BF"/>
</svg>
