<svg width="64" height="64" viewBox="0 0 64 64" fill="none" xmlns="http://www.w3.org/2000/svg">
<g opacity="0.9">
<rect width="64" height="64" rx="6" fill="black"/>
<g clip-path="url(#clip0_13700_34078)">
<path d="M32 52C43.0457 52 52 43.0457 52 32C52 20.9543 43.0457 12 32 12C20.9543 12 12 20.9543 12 32C12 43.0457 20.9543 52 32 52Z" fill="url(#paint0_linear_13700_34078)"/>
<path d="M30.2921 48.7317C29.7319 48.6747 29.1748 48.5897 28.6231 48.4769C28.0814 48.3661 27.5395 48.2268 27.0121 48.0621C26.4906 47.9 25.9712 47.7098 25.4678 47.4968C24.9691 47.2858 24.4749 47.0479 23.9985 46.7889C23.522 46.5299 23.0592 46.2488 22.6127 45.9468C22.1662 45.6449 21.7327 45.3211 21.3188 44.9791C20.9048 44.6372 20.504 44.2731 20.125 43.8944C19.746 43.5157 19.381 43.1139 19.0403 42.7006C18.6995 42.2873 18.3724 41.8523 18.0725 41.4079C17.7727 40.9634 17.4877 40.495 17.2305 40.0221C16.9733 39.5492 16.7339 39.0511 16.5229 38.5525C16.3102 38.0494 16.1205 37.5296 15.9576 37.0088C15.7934 36.4813 15.6542 35.9394 15.5428 35.3978C15.43 34.8461 15.345 34.289 15.288 33.7288C15.1722 32.586 15.1722 31.4345 15.288 30.2917C15.3449 29.7315 15.43 29.1744 15.5428 28.6227C15.6536 28.0811 15.7928 27.5391 15.9576 27.0117C16.1205 26.4902 16.3102 25.9705 16.5229 25.4671C16.7339 24.9685 16.9721 24.4742 17.2308 23.9978C17.4894 23.5214 17.7709 23.0585 18.0728 22.612C18.3748 22.1655 18.6986 21.7323 19.0405 21.3181C19.3825 20.9039 19.7466 20.5033 20.1253 20.1243C20.504 19.7454 20.9057 19.3803 21.3191 19.0396C21.7324 18.6988 22.1685 18.3723 22.613 18.0719C23.0574 17.7714 23.5259 17.487 23.9988 17.2298C24.4717 16.9726 24.9694 16.7329 25.4681 16.5219C25.9718 16.3092 26.4909 16.119 27.0124 15.9566C27.5398 15.7925 28.0817 15.6532 28.6234 15.5418C29.1751 15.429 29.7321 15.344 30.2924 15.287C31.4352 15.1713 32.5867 15.1713 33.7294 15.287C34.2897 15.344 34.8467 15.429 35.3985 15.5418C35.9401 15.6526 36.482 15.7919 37.0094 15.9566C37.5309 16.1187 38.0503 16.3089 38.5537 16.5219C39.0524 16.7329 39.5466 16.9711 40.0231 17.2298C40.4995 17.4885 40.9623 17.7699 41.4088 18.0719C41.8554 18.3738 42.2885 18.6976 42.7028 19.0396C43.117 19.3815 43.5176 19.7456 43.8965 20.1243C44.2755 20.503 44.6405 20.9048 44.9813 21.3181C45.322 21.7314 45.6486 22.1676 45.949 22.612C46.2494 23.0565 46.5339 23.5249 46.7911 23.9978C47.0483 24.4707 47.288 24.9685 47.4989 25.4671C47.7117 25.9708 47.9019 26.4899 48.0643 27.0114C48.2284 27.5388 48.3677 28.0808 48.4791 28.6224C48.5918 29.1741 48.6769 29.7312 48.7339 30.2914C48.8496 31.4342 48.8496 32.5857 48.7339 33.7285C48.6769 34.2887 48.5918 34.8458 48.4791 35.3975C48.3683 35.9391 48.229 36.4811 48.0643 37.0085C47.9022 37.5299 47.712 38.0496 47.4989 38.5528C47.288 39.0514 47.05 39.5456 46.7911 40.0221C46.5321 40.4985 46.2509 40.9613 45.949 41.4079C45.6471 41.8544 45.3232 42.2879 44.9813 42.7018C44.6394 43.1157 44.2755 43.5166 43.8965 43.8956C43.5176 44.2745 43.1161 44.6396 42.7028 44.9803C42.2894 45.3211 41.8533 45.6476 41.4088 45.948C40.9644 46.2485 40.496 46.5329 40.0231 46.7901C39.5502 47.0473 39.0518 47.2867 38.5531 47.4976C38.0494 47.7104 37.5303 47.9006 37.0088 48.063C36.4814 48.2271 35.9395 48.3664 35.3979 48.4778C34.8461 48.5906 34.2891 48.6756 33.7288 48.7326C32.5861 48.8483 31.4346 48.8483 30.2918 48.7326L30.2921 48.7317ZM32.0106 46.9984C33.6704 46.9999 35.3188 46.7246 36.888 46.1839C36.8245 46.098 36.7775 46.001 36.7496 45.8979C36.6057 45.3939 36.3965 44.9107 36.1274 44.4609H31.6776C32.0718 43.969 32.519 43.5218 33.0109 43.1276H35.1297C34.6084 42.5501 34.0316 42.0252 33.4077 41.5605C33.3343 41.5108 33.2685 41.451 33.2121 41.3827L33.3721 41.276L34.2077 40.7249C34.3854 40.6005 34.5632 40.4938 34.741 40.3516C36.1454 41.436 37.8343 43.1427 38.4743 45.4182C38.4832 45.4525 38.4902 45.4872 38.4951 45.5222C41.0417 44.3008 43.1913 42.3845 44.6961 39.9944C46.2009 37.6043 46.9997 34.8376 47.0004 32.0132C47.0011 29.1888 46.2036 26.4217 44.6999 24.0308C43.1963 21.64 41.0476 19.7227 38.5016 18.5C38.4978 18.5548 38.4886 18.6091 38.4743 18.6621C37.5854 21.9154 34.7943 23.7288 32.3588 25.3465L31.5232 25.8976C29.6032 27.1776 27.061 29.2221 27.061 32.0485C27.0756 33.0228 27.3511 33.9753 27.8589 34.807H32.1528C31.721 35.3007 31.2383 35.7476 30.7128 36.1403H28.8352C29.3376 36.6953 29.8925 37.2004 30.4921 37.6485C30.5433 37.6854 30.5909 37.7271 30.6343 37.7729C30.1365 38.0929 29.621 38.4307 29.1054 38.8218C27.2921 37.3818 25.2832 35.1062 25.2832 32.0485C25.2832 28.3688 28.2699 25.9332 30.5277 24.4221L31.3798 23.8532C33.6731 22.3599 36.0376 20.7954 36.7487 18.1999C36.7818 18.0708 36.8448 17.9512 36.9324 17.8508C33.7566 16.7483 30.3027 16.744 27.1241 17.8384C27.1894 17.9254 27.2376 18.024 27.266 18.1291C27.4188 18.6557 27.6426 19.1591 27.9312 19.6254H32.2773C31.8814 20.1218 31.4278 20.5694 30.9262 20.9587H28.9437C29.4505 21.5126 30.0082 22.0177 30.6094 22.4674C30.6828 22.5171 30.7486 22.5769 30.805 22.6452L30.645 22.7519L29.8094 23.303C29.6317 23.4274 29.4539 23.5341 29.2761 23.6763C27.8717 22.5919 26.1828 20.8852 25.5428 18.6096C25.5335 18.5738 25.5263 18.5374 25.5214 18.5006C22.9766 19.7229 20.8287 21.6392 19.3253 24.0287C17.8218 26.4182 17.0239 29.1839 17.0233 32.007C17.0228 34.8302 17.8197 37.5961 19.3223 39.9862C20.8249 42.3763 22.972 44.2934 25.5164 45.5166C25.5206 45.4653 25.5294 45.4144 25.5428 45.3646C26.4317 42.1113 29.2228 40.2979 31.6583 38.6802L32.4939 38.1291C34.4139 36.8491 36.9561 34.8046 36.9561 31.9782C36.9431 31.0273 36.6805 30.0965 36.1946 29.279H32.6429C33.0683 28.7853 33.545 28.3383 34.0651 27.9456H35.2364C34.7197 27.3668 34.1458 26.8417 33.5235 26.3782C33.4723 26.3413 33.4247 26.2996 33.3813 26.2538C33.8791 25.9338 34.3946 25.596 34.9102 25.2049C36.7235 26.6449 38.7324 28.9205 38.7324 31.9782C38.7324 35.6579 35.7457 38.0935 33.488 39.6046L32.6346 40.1735C30.3413 41.6668 27.9768 43.2313 27.2657 45.8268C27.2333 45.9528 27.1725 46.0696 27.088 46.1685C28.6706 46.7195 30.3348 47.0001 32.0106 46.9984ZM30.165 32.0233C30.165 31.6395 30.2788 31.2643 30.492 30.9452C30.7052 30.6261 31.0083 30.3774 31.3629 30.2305C31.7174 30.0837 32.1076 30.0452 32.484 30.1201C32.8604 30.195 33.2062 30.3798 33.4775 30.6512C33.7489 30.9226 33.9337 31.2683 34.0086 31.6447C34.0835 32.0211 34.045 32.4113 33.8982 32.7659C33.7513 33.1204 33.5026 33.4235 33.1835 33.6367C32.8644 33.8499 32.4892 33.9637 32.1054 33.9637C31.5908 33.9637 31.0972 33.7593 30.7333 33.3954C30.3694 33.0315 30.165 32.5379 30.165 32.0233Z" fill="black"/>
</g>
</g>
<defs>
<linearGradient id="paint0_linear_13700_34078" x1="16.8" y1="18.6" x2="47.36" y2="42.68" gradientUnits="userSpaceOnUse">
<stop stop-color="#FFD52E"/>
<stop offset="1" stop-color="#CB0000"/>
</linearGradient>
<clipPath id="clip0_13700_34078">
<rect width="40" height="40" fill="white" transform="translate(12 12)"/>
</clipPath>
</defs>
</svg>
