<svg width="25" height="24" viewBox="0 0 25 24" fill="none" xmlns="http://www.w3.org/2000/svg">
<path fill-rule="evenodd" clip-rule="evenodd" d="M22.0896 17.1374C23.7259 14.8424 24.6916 12.202 24.6916 9.59242C24.6916 8.6178 24.5861 7.72102 24.3909 6.90048H15.1415C13.0385 6.90048 11.1996 8.31732 10.6633 10.3507H19.9145L19.1183 13.6872H9.82918C9.38668 15.438 10.7101 17.1374 12.5159 17.1374H22.0896ZM18.9235 20.4739C16.2424 22.6183 12.8469 24 9.22236 24C2.96645 24 -1.28 18.4645 0.350305 12.019C2.30668 4.28437 9.12341 0 15.175 0C18.062 0 20.9632 1.12558 22.7899 3.48816H15.9928C10.568 3.48816 5.84182 7.18624 4.53718 12.4518C3.52673 16.5301 6.61269 20.4739 10.8142 20.4739H18.9235Z" fill="white"/>
</svg>
