<svg width="12" height="12" viewBox="0 0 12 12" fill="none" xmlns="http://www.w3.org/2000/svg">
<path fill-rule="evenodd" clip-rule="evenodd" d="M6 10.8C8.65097 10.8 10.8 8.65097 10.8 6C10.8 3.34903 8.65097 1.2 6 1.2C3.34903 1.2 1.2 3.34903 1.2 6C1.2 8.65097 3.34903 10.8 6 10.8ZM6 12C9.31371 12 12 9.31371 12 6C12 2.68629 9.31371 0 6 0C2.68629 0 0 2.68629 0 6C0 9.31371 2.68629 12 6 12Z" fill="#EFD063"/>
<path fill-rule="evenodd" clip-rule="evenodd" d="M6.6 4.8V9.6H5.4V4.8H6.6Z" fill="#EFD063"/>
<path fill-rule="evenodd" clip-rule="evenodd" d="M6.6 2.4V3.6H5.4V2.4H6.6Z" fill="#EFD063"/>
</svg>
