<svg width="13" height="13" viewBox="0 0 13 13" fill="none" xmlns="http://www.w3.org/2000/svg">
<path fill-rule="evenodd" clip-rule="evenodd" d="M6.43652 11.3C9.08749 11.3 11.2365 9.15097 11.2365 6.5C11.2365 3.84903 9.08749 1.7 6.43652 1.7C3.78556 1.7 1.63652 3.84903 1.63652 6.5C1.63652 9.15097 3.78556 11.3 6.43652 11.3ZM6.43652 12.5C9.75023 12.5 12.4365 9.81371 12.4365 6.5C12.4365 3.18629 9.75023 0.5 6.43652 0.5C3.12281 0.5 0.436523 3.18629 0.436523 6.5C0.436523 9.81371 3.12281 12.5 6.43652 12.5Z" fill="white"/>
<path fill-rule="evenodd" clip-rule="evenodd" d="M7.03652 5.3V10.1H5.83652V5.3H7.03652Z" fill="white"/>
<path fill-rule="evenodd" clip-rule="evenodd" d="M7.03652 2.9V4.1H5.83652V2.9H7.03652Z" fill="white"/>
</svg>
