<svg width="14" height="14" viewBox="0 0 14 14" fill="none" xmlns="http://www.w3.org/2000/svg">
<path fill-rule="evenodd" clip-rule="evenodd" d="M7 12.6C10.0928 12.6 12.6 10.0928 12.6 7C12.6 3.90721 10.0928 1.4 7 1.4C3.90721 1.4 1.4 3.90721 1.4 7C1.4 10.0928 3.90721 12.6 7 12.6ZM7 14C10.866 14 14 10.866 14 7C14 3.13401 10.866 0 7 0C3.13401 0 0 3.13401 0 7C0 10.866 3.13401 14 7 14Z" fill="#EF84F5"/>
<path fill-rule="evenodd" clip-rule="evenodd" d="M7.7 5.6V11.2H6.3V5.6H7.7Z" fill="#EF84F5"/>
<path fill-rule="evenodd" clip-rule="evenodd" d="M7.7 2.8V4.2H6.3V2.8H7.7Z" fill="#EF84F5"/>
</svg>
