<svg width="94" height="155" viewBox="0 0 94 155" fill="none" xmlns="http://www.w3.org/2000/svg">
<path d="M49.0632 53.0855L25.3158 15.9795H0.816406L24.5638 53.0855H49.0632Z" fill="#544246"/>
<path d="M64.807 149.829V148.213C64.807 147.975 64.2323 147.747 63.1898 147.539V145.934C63.1898 145.698 62.4313 145.474 61.0777 145.274C61.0637 144.79 60.9598 144.254 60.9598 144.254C56.6947 136.816 50.5023 123.728 48.7997 106.347C46.4332 82.1824 54.0952 63.5263 58.0613 55.3564H25.7151C29.6692 63.5328 37.2309 82.0515 34.9592 106.054C33.2992 123.591 27.0771 136.79 22.8167 144.254C22.8167 144.254 22.7025 144.789 22.6849 145.27C22.7523 144.66 22.7526 144.66 22.6858 145.27C22.6858 145.27 22.6858 145.272 22.6858 145.274C21.3322 145.474 20.5737 145.698 20.5737 145.934V147.539C19.6685 147.72 19.1161 147.915 18.9861 148.119C18.9861 148.121 18.9852 148.122 18.9843 148.122C18.9759 148.136 18.9685 148.15 18.9639 148.165C18.9592 148.181 18.9564 148.197 18.9564 148.213V149.83C17.9993 150.057 17.4766 150.303 17.4766 150.56V152.878C17.4766 154.049 28.4028 155 41.8813 155C55.3597 155 66.2859 154.05 66.2859 152.878V150.56C66.2859 150.303 65.7633 150.057 64.8061 149.83L64.807 149.829Z" fill="white"/>
<path d="M66.2879 150.555C66.2879 149.382 55.3616 148.433 41.8832 148.433C28.4048 148.433 17.4785 149.382 17.4785 150.555C17.4785 151.727 28.4048 152.677 41.8832 152.677C55.3616 152.677 66.287 151.727 66.2879 150.555Z" fill="#4D4D4D"/>
<path d="M64.8086 148.212C64.8086 147.207 54.5443 146.392 41.8838 146.392C29.2233 146.392 19.6023 147.157 18.9887 148.118C18.9887 148.12 18.9877 148.121 18.9868 148.122C18.9785 148.136 18.971 148.15 18.9664 148.165C18.9618 148.181 18.959 148.196 18.959 148.212C18.959 149.218 29.2233 150.033 41.8838 150.033C54.5443 150.033 64.8086 149.218 64.8086 148.213V148.212Z" fill="#4D4D4D"/>
<g style="mix-blend-mode:darken">
<path d="M41.8832 152.68C28.4048 152.68 17.4785 151.73 17.4785 150.558V152.876C17.4785 154.048 28.4048 154.998 41.8832 154.998C55.3616 154.998 66.2879 154.048 66.2879 152.876V150.558C66.287 151.729 55.3607 152.68 41.8832 152.68Z" fill="black"/>
<path d="M41.8838 150.033C29.2224 150.033 18.959 149.217 18.959 148.213V150.202C18.959 151.207 29.2233 152.022 41.8838 152.022C54.5443 152.022 64.8086 151.207 64.8086 150.202V148.214C64.8077 149.219 54.5443 150.033 41.8838 150.033V150.033Z" fill="black"/>
<path d="M41.8837 147.453C30.1154 147.453 20.5762 146.773 20.5762 145.934V147.594C20.5762 148.433 30.1163 149.113 41.8837 149.113C53.6511 149.113 63.1913 148.433 63.1913 147.594V145.934C63.1913 146.773 53.6511 147.453 41.8837 147.453Z" fill="black"/>
</g>
<path d="M63.1913 145.934C63.1913 145.095 53.6511 144.414 41.8837 144.414C30.1163 144.414 20.5762 145.095 20.5762 145.934C20.5762 146.773 30.1163 147.454 41.8837 147.454C53.6511 147.454 63.1904 146.773 63.1913 145.934Z" fill="#4D4D4D"/>
<path d="M61.0766 145.261C61.0775 145.269 61.0803 145.277 61.0803 145.284C61.0682 144.797 60.9624 144.252 60.9624 144.252C56.6974 136.814 50.505 123.726 48.8023 106.345C46.4349 82.1804 54.0979 63.5244 58.0639 55.3545H25.7178C29.6718 63.5309 37.2336 82.0495 34.9618 106.052C33.3018 123.589 27.0797 136.788 22.8193 144.252C22.8193 144.252 22.7051 144.787 22.6875 145.268C22.755 144.658 22.7553 144.658 22.6884 145.268C22.6884 145.276 22.6884 145.285 22.6875 145.294C22.6884 145.314 22.6959 145.333 22.7051 145.353C22.6949 145.371 22.6875 145.389 22.6875 145.407C22.6875 145.561 23.0811 145.709 23.8025 145.845C26.4549 146.349 33.5488 146.709 41.8839 146.709C50.219 146.709 57.312 146.349 59.9644 145.845C60.6857 145.708 61.0803 145.56 61.0803 145.407C61.0803 145.388 61.0738 145.371 61.0627 145.353C61.0738 145.33 61.0803 145.307 61.0803 145.283C61.0803 145.276 61.0784 145.268 61.0766 145.26V145.261Z" fill="#544246"/>
<mask id="mask0_9765_28390" style="mask-type:luminance" maskUnits="userSpaceOnUse" x="22" y="55" width="40" height="92">
<path d="M61.0746 145.261C61.0756 145.269 61.0784 145.277 61.0784 145.284C61.0663 144.797 60.9604 144.252 60.9604 144.252C56.6954 136.814 50.503 123.726 48.8003 106.345C46.4329 82.1804 54.0959 63.5244 58.062 55.3545H25.7158C29.6698 63.5309 37.2316 82.0495 34.9598 106.052C33.2999 123.589 27.0778 136.788 22.8174 144.252C22.8174 144.252 22.7032 144.787 22.6855 145.268C22.753 144.658 22.7533 144.658 22.6865 145.268C22.6865 145.276 22.6865 145.285 22.6855 145.294C22.6865 145.314 22.6939 145.333 22.7032 145.353C22.693 145.371 22.6855 145.389 22.6855 145.407C22.6855 145.561 23.0792 145.709 23.8005 145.845C26.453 146.349 33.5468 146.709 41.8819 146.709C50.2171 146.709 57.31 146.349 59.9624 145.845C60.6838 145.708 61.0784 145.56 61.0784 145.407C61.0784 145.388 61.0719 145.371 61.0607 145.353C61.0719 145.33 61.0784 145.307 61.0784 145.283C61.0784 145.276 61.0765 145.268 61.0746 145.26V145.261Z" fill="white"/>
</mask>
<g mask="url(#mask0_9765_28390)">
<path d="M34.0381 54.3105C39.1219 69.8806 40.2193 86.1544 39.1823 102.194C38.2075 117.283 35.3016 132.632 26.8356 146.357C24.7894 146.274 22.7033 146.099 20.6618 145.965C19.9608 145.919 19.2701 145.82 18.6035 145.769C29.0071 131.827 35.0435 116.515 36.3516 100.431C37.6291 84.7256 36.0685 68.8241 27.0918 54.5055C29.4536 54.524 31.6892 54.4284 34.0371 54.3096L34.0381 54.3105Z" fill="#4F3E41"/>
<path d="M53.5858 54.3111C48.8965 64.7992 46.491 76.017 45.869 87.115C44.7596 106.916 47.4797 127.972 57.9585 146.162C54.9515 146.3 51.9778 146.499 48.9559 146.554C39.9208 116.481 42.3439 84.3846 47.9272 54.0168C49.7135 54.326 51.7643 53.8664 53.4577 53.9193C53.6684 53.9258 53.5598 54.3102 53.5867 54.3111H53.5858Z" fill="#503B25"/>
<path d="M57.4442 54.5055C43.4932 83.3832 44.2638 119.1 65.6753 145.769C65.5908 145.777 65.5026 145.762 65.4181 145.769C62.7769 145.99 60.571 146.041 57.9585 146.161C47.4797 127.971 44.7595 106.914 45.8689 87.1144C46.491 76.0164 48.8964 64.7986 53.5858 54.3105C54.8447 54.3542 56.163 54.5129 57.4442 54.5064V54.5055Z" fill="#624C45"/>
<path d="M35.8366 146.553C32.8509 146.509 29.8141 146.477 26.834 146.357C35.3 132.632 38.2059 117.284 39.1807 102.195C40.2168 86.1547 39.1204 69.8809 34.0365 54.3108C34.069 54.3089 34.2249 53.9301 34.4227 53.919C35.897 53.8345 37.8809 54.1037 39.4388 54.0165C43.7382 84.608 40.9846 116.134 35.8375 146.553H35.8366Z" fill="#A69C9B"/>
<path d="M20.6611 145.965C22.7026 146.099 24.7878 146.275 26.8349 146.357C29.8151 146.477 32.8518 146.509 35.8375 146.553C40.1694 146.618 44.6137 146.632 48.9558 146.553C51.9777 146.498 54.9513 146.3 57.9584 146.161C60.5709 146.042 62.7768 145.99 65.418 145.77L66.8329 146.749C60.8021 147.664 54.9309 147.985 48.5696 148.12C38.4482 148.335 28.3231 147.737 18.2167 147.533L19.5025 147.141C19.1339 147.12 14.8781 146.936 16.4156 146.357C17.6438 145.895 19.8088 146.871 20.6602 145.965H20.6611Z" fill="#544246"/>
</g>
<path d="M24.5638 53.0855H38.7979L25.56 16.3611L25.3158 15.9795H0.816406L24.5638 53.0855Z" fill="#A69C9B"/>
<path d="M1.97102 15.9795L1.11133 16.44L24.5644 53.0855H33.5475L13.6688 15.9795H1.97102Z" fill="#4F3E41"/>
<path d="M0.816406 15.9795L24.5638 53.0855H27.193L3.49855 15.9795H0.816406Z" fill="#544246"/>
<path d="M52.9038 53.0856L41.8828 35.8657L65.9412 0H93.1858L59.0349 53.0856H52.9038Z" fill="url(#paint0_linear_9765_28390)"/>
<defs>
<linearGradient id="paint0_linear_9765_28390" x1="42.9978" y1="37.7958" x2="97.0053" y2="6.61482" gradientUnits="userSpaceOnUse">
<stop stop-color="#544246" stop-opacity="0.2"/>
<stop offset="0.7" stop-color="#4F3E41"/>
</linearGradient>
</defs>
</svg>
