<svg width="94" height="155" viewBox="0 0 94 155" fill="none" xmlns="http://www.w3.org/2000/svg">
<path d="M49.0632 53.0858L25.3158 15.9795H0.816406L24.5638 53.0858H49.0632Z" fill="#C6C5C7"/>
<path d="M64.807 149.828V148.212C64.807 147.974 64.2323 147.747 63.1897 147.539V145.934C63.1897 145.697 62.4312 145.473 61.0776 145.274C61.0637 144.789 60.9597 144.253 60.9597 144.253C56.6947 136.815 50.5023 123.727 48.7996 106.346C46.4332 82.1816 54.0952 63.5254 58.0613 55.3555H25.7151C29.6692 63.5319 37.2309 82.0507 34.9591 106.054C33.2992 123.59 27.0771 136.789 22.8167 144.253C22.8167 144.253 22.7025 144.788 22.6849 145.269C22.7523 144.659 22.7526 144.659 22.6858 145.269C22.6858 145.269 22.6858 145.272 22.6858 145.274C21.3322 145.473 20.5737 145.697 20.5737 145.934V147.539C19.6685 147.72 19.1161 147.914 18.9861 148.118C18.9861 148.12 18.9852 148.121 18.9843 148.122C18.9759 148.136 18.9685 148.15 18.9638 148.165C18.9592 148.181 18.9564 148.196 18.9564 148.212V149.829C17.9992 150.057 17.4766 150.303 17.4766 150.559V152.877C17.4766 154.049 28.4028 155 41.8813 155C55.3597 155 66.2859 154.05 66.2859 152.877V150.559C66.2859 150.303 65.7633 150.057 64.8061 149.829L64.807 149.828Z" fill="white"/>
<path d="M66.2879 150.555C66.2879 149.382 55.3616 148.433 41.8832 148.433C28.4048 148.433 17.4785 149.382 17.4785 150.555C17.4785 151.727 28.4048 152.677 41.8832 152.677C55.3616 152.677 66.287 151.727 66.2879 150.555Z" fill="#4D4D4D"/>
<path d="M64.8086 148.212C64.8086 147.207 54.5443 146.392 41.8838 146.392C29.2233 146.392 19.6024 147.157 18.9887 148.118C18.9887 148.12 18.9878 148.121 18.9868 148.122C18.9785 148.136 18.9711 148.15 18.9664 148.165C18.9618 148.181 18.959 148.196 18.959 148.212C18.959 149.218 29.2233 150.033 41.8838 150.033C54.5443 150.033 64.8086 149.218 64.8086 148.213V148.212Z" fill="#4D4D4D"/>
<g style="mix-blend-mode:darken">
<path d="M41.8832 152.68C28.4048 152.68 17.4785 151.73 17.4785 150.558V152.876C17.4785 154.048 28.4048 154.998 41.8832 154.998C55.3616 154.998 66.2879 154.048 66.2879 152.876V150.558C66.287 151.729 55.3607 152.68 41.8832 152.68Z" fill="black"/>
<path d="M41.8838 150.032C29.2224 150.032 18.959 149.216 18.959 148.212V150.201C18.959 151.206 29.2233 152.021 41.8838 152.021C54.5443 152.021 64.8086 151.206 64.8086 150.201V148.213C64.8077 149.218 54.5443 150.032 41.8838 150.032V150.032Z" fill="black"/>
<path d="M41.8837 147.453C30.1154 147.453 20.5762 146.773 20.5762 145.934V147.594C20.5762 148.433 30.1163 149.113 41.8837 149.113C53.6511 149.113 63.1913 148.433 63.1913 147.594V145.934C63.1913 146.773 53.6511 147.453 41.8837 147.453Z" fill="black"/>
</g>
<path d="M63.1913 145.934C63.1913 145.095 53.6511 144.414 41.8837 144.414C30.1163 144.414 20.5762 145.095 20.5762 145.934C20.5762 146.773 30.1163 147.454 41.8837 147.454C53.6511 147.454 63.1904 146.773 63.1913 145.934Z" fill="#4D4D4D"/>
<path d="M61.0766 145.262C61.0775 145.269 61.0803 145.277 61.0803 145.285C61.0682 144.797 60.9624 144.252 60.9624 144.252C56.6974 136.814 50.505 123.726 48.8023 106.345C46.4349 82.1806 54.0978 63.5244 58.0639 55.3545H25.7178C29.6718 63.5309 37.2336 82.0497 34.9618 106.053C33.3018 123.589 27.0797 136.788 22.8193 144.252C22.8193 144.252 22.7051 144.787 22.6875 145.268C22.755 144.658 22.7553 144.658 22.6884 145.268C22.6884 145.276 22.6884 145.286 22.6875 145.294C22.6884 145.315 22.6959 145.334 22.7051 145.354C22.6949 145.371 22.6875 145.39 22.6875 145.407C22.6875 145.561 23.0811 145.709 23.8025 145.846C26.4549 146.35 33.5488 146.71 41.8839 146.71C50.219 146.71 57.312 146.35 59.9644 145.846C60.6857 145.708 61.0803 145.561 61.0803 145.407C61.0803 145.389 61.0738 145.371 61.0627 145.354C61.0738 145.33 61.0803 145.307 61.0803 145.284C61.0803 145.276 61.0784 145.268 61.0766 145.261V145.262Z" fill="#C6C5C7"/>
<mask id="mask0_9765_28328" style="mask-type:luminance" maskUnits="userSpaceOnUse" x="22" y="55" width="40" height="92">
<path d="M61.0746 145.263C61.0756 145.27 61.0783 145.278 61.0783 145.286C61.0663 144.798 60.9604 144.253 60.9604 144.253C56.6954 136.815 50.503 123.727 48.8003 106.346C46.4329 82.1816 54.0959 63.5254 58.062 55.3555H25.7158C29.6699 63.5319 37.2316 82.0507 34.9598 106.054C33.2999 123.59 27.0778 136.789 22.8174 144.253C22.8174 144.253 22.7032 144.788 22.6855 145.269C22.753 144.659 22.7533 144.659 22.6865 145.269C22.6865 145.277 22.6865 145.287 22.6855 145.295C22.6865 145.316 22.6939 145.335 22.7032 145.355C22.693 145.372 22.6855 145.391 22.6855 145.408C22.6855 145.562 23.0792 145.71 23.8005 145.847C26.453 146.351 33.5468 146.711 41.8819 146.711C50.2171 146.711 57.31 146.351 59.9624 145.847C60.6838 145.709 61.0783 145.562 61.0783 145.408C61.0783 145.39 61.0718 145.372 61.0607 145.355C61.0718 145.331 61.0783 145.308 61.0783 145.285C61.0783 145.277 61.0765 145.269 61.0746 145.262V145.263Z" fill="white"/>
</mask>
<g mask="url(#mask0_9765_28328)">
<path d="M34.0381 54.3085C39.1219 69.8787 40.2193 86.1526 39.1823 102.193C38.2075 117.282 35.3016 132.63 26.8356 146.356C24.7894 146.273 22.7033 146.098 20.6618 145.964C19.9608 145.917 19.2701 145.819 18.6035 145.768C29.0071 131.825 35.0435 116.513 36.3516 100.43C37.6291 84.7238 36.0685 68.8222 27.0918 54.5035C29.4537 54.5221 31.6892 54.4265 34.0371 54.3076L34.0381 54.3085Z" fill="#6D6B6E"/>
<path d="M53.5858 54.3092C48.8965 64.7973 46.491 76.0151 45.869 87.1132C44.7595 106.914 47.4797 127.97 57.9585 146.16C54.9515 146.299 51.9778 146.497 48.9559 146.552C39.9208 116.479 42.3439 84.3828 47.9272 54.0149C49.7135 54.324 51.7643 53.8645 53.4577 53.9174C53.6684 53.9239 53.5598 54.3082 53.5867 54.3092H53.5858Z" fill="#AEAEAE"/>
<path d="M57.4442 54.5045C43.4932 83.3824 44.2637 119.1 65.6753 145.769C65.5908 145.776 65.5026 145.762 65.4181 145.769C62.7768 145.99 60.571 146.04 57.9585 146.161C47.4797 127.971 44.7595 106.914 45.8689 87.1136C46.491 76.0156 48.8964 64.7977 53.5858 54.3096C54.8447 54.3532 56.163 54.512 57.4442 54.5055V54.5045Z" fill="#7A787A"/>
<path d="M35.8366 146.553C32.8509 146.508 29.8141 146.477 26.834 146.357C35.3 132.631 38.2059 117.283 39.1807 102.194C40.2168 86.1539 39.1203 69.88 34.0365 54.3098C34.069 54.3079 34.2249 53.9291 34.4227 53.918C35.897 53.8335 37.8809 54.1028 39.4388 54.0155C43.7382 84.6072 40.9846 116.134 35.8375 146.553H35.8366Z" fill="#E1E1E1"/>
<path d="M20.6611 145.965C22.7026 146.099 24.7878 146.275 26.8349 146.357C29.8151 146.477 32.8518 146.509 35.8376 146.553C40.1694 146.618 44.6137 146.632 48.9558 146.553C51.9777 146.498 54.9513 146.3 57.9584 146.161C60.5709 146.042 62.7768 145.99 65.418 145.77L66.8329 146.749C60.8021 147.664 54.9309 147.985 48.5695 148.12C38.4482 148.335 28.3231 147.737 18.2166 147.533L19.5025 147.141C19.1339 147.12 14.8781 146.936 16.4156 146.357C17.6438 145.895 19.8088 146.871 20.6602 145.965H20.6611Z" fill="#C6C5C7"/>
</g>
<path d="M24.5638 53.0858H38.7979L25.56 16.3611L25.3158 15.9795H0.816406L24.5638 53.0858Z" fill="#E1E1E1"/>
<path d="M1.97102 15.9795L1.11133 16.44L24.5644 53.0858H33.5476L13.6688 15.9795H1.97102Z" fill="#6D6B6E"/>
<path d="M0.816406 15.9795L24.5638 53.0858H27.193L3.49854 15.9795H0.816406Z" fill="#C6C5C7"/>
<path d="M52.9038 53.0859L41.8828 35.865L65.9412 0H93.1859L59.0358 53.0859H52.9038Z" fill="url(#paint0_linear_9765_28328)"/>
<defs>
<linearGradient id="paint0_linear_9765_28328" x1="42.9978" y1="37.7961" x2="97.0054" y2="6.61513" gradientUnits="userSpaceOnUse">
<stop stop-color="#7A787A" stop-opacity="0.2"/>
<stop offset="0.7" stop-color="#C6C5C7" stop-opacity="0.5"/>
</linearGradient>
</defs>
</svg>
