<svg width="32" height="32" viewBox="0 0 32 32" fill="none" xmlns="http://www.w3.org/2000/svg">
<rect width="32" height="32" rx="10" fill="#3A466B"/>
<path d="M20 13C20 12 20 8 16 8C12 8 12 12 12 13" stroke="#EFD063" stroke-width="1.3" stroke-linecap="round"/>
<path d="M20 13C20 12 20 8 16 8C12 8 12 12 12 13" stroke="black" stroke-opacity="0.2" stroke-width="1.3" stroke-linecap="round"/>
<path d="M9 19.0986C9 17.2328 9 16.3181 9.32647 15.5681C9.74897 14.5986 10.5748 13.812 11.5926 13.4096C12.3608 13.0986 13.3402 13.0986 15.299 13.0986H16.701C18.6598 13.0986 19.62 13.0986 20.4074 13.4096C21.4252 13.812 22.251 14.5986 22.6735 15.5681C23 16.2999 23 17.2328 23 19.0986C23 20.9645 23 21.8791 22.6735 22.6291C22.251 23.5986 21.4252 24.3852 20.4074 24.7877C19.6392 25.0986 18.6598 25.0986 16.701 25.0986H15.299C13.3402 25.0986 12.38 25.0986 11.5926 24.7877C10.5748 24.3852 9.74897 23.5986 9.32647 22.6291C9 21.8974 9 20.9645 9 19.0986Z" stroke="#EFD063" stroke-width="1.25"/>
<path d="M9 19.0986C9 17.2328 9 16.3181 9.32647 15.5681C9.74897 14.5986 10.5748 13.812 11.5926 13.4096C12.3608 13.0986 13.3402 13.0986 15.299 13.0986H16.701C18.6598 13.0986 19.62 13.0986 20.4074 13.4096C21.4252 13.812 22.251 14.5986 22.6735 15.5681C23 16.2999 23 17.2328 23 19.0986C23 20.9645 23 21.8791 22.6735 22.6291C22.251 23.5986 21.4252 24.3852 20.4074 24.7877C19.6392 25.0986 18.6598 25.0986 16.701 25.0986H15.299C13.3402 25.0986 12.38 25.0986 11.5926 24.7877C10.5748 24.3852 9.74897 23.5986 9.32647 22.6291C9 21.8974 9 20.9645 9 19.0986Z" stroke="black" stroke-opacity="0.2" stroke-width="1.25"/>
<path d="M16.238 20.5309C17.446 20.5309 18.4253 19.6056 18.4253 18.4642C18.4253 17.3228 17.446 16.3975 16.238 16.3975C15.03 16.3975 14.0508 17.3228 14.0508 18.4642C14.0508 19.6056 15.03 20.5309 16.238 20.5309Z" fill="#EFD063"/>
<path d="M16.238 20.5309C17.446 20.5309 18.4253 19.6056 18.4253 18.4642C18.4253 17.3228 17.446 16.3975 16.238 16.3975C15.03 16.3975 14.0508 17.3228 14.0508 18.4642C14.0508 19.6056 15.03 20.5309 16.238 20.5309Z" fill="black" fill-opacity="0.2"/>
<path d="M15.3086 21.5659C15.3086 22.0825 15.7219 22.5131 16.2558 22.5131C16.7897 22.5131 17.2031 22.0998 17.2031 21.5659H15.3258H15.3086ZM15.3086 18.4658V21.5659H17.1858V18.4658H15.3086Z" fill="#EFD063"/>
<path d="M15.3086 21.5659C15.3086 22.0825 15.7219 22.5131 16.2558 22.5131C16.7897 22.5131 17.2031 22.0998 17.2031 21.5659H15.3258H15.3086ZM15.3086 18.4658V21.5659H17.1858V18.4658H15.3086Z" fill="black" fill-opacity="0.2"/>
</svg>
