<svg width="21" height="22" viewBox="0 0 21 22" fill="none" xmlns="http://www.w3.org/2000/svg">
<path d="M1 12.2217C1 10.3361 1 9.39325 1.58579 8.80747C2.17157 8.22168 3.11438 8.22168 5 8.22168H15.8235C17.7091 8.22168 18.652 8.22168 19.2377 8.80747C19.8235 9.39325 19.8235 10.3361 19.8235 12.2217V14.4439C19.8235 17.2723 19.8235 18.6865 18.9449 19.5652C18.0662 20.4439 16.652 20.4439 13.8235 20.4439H7C4.17157 20.4439 2.75736 20.4439 1.87868 19.5652C1 18.6865 1 17.2723 1 14.4439V12.2217Z" stroke="#111931" stroke-width="2"/>
<path d="M15.1168 7.11122V6.26154C15.1168 3.66256 13.0099 1.55566 10.411 1.55566V1.55566C7.81197 1.55566 5.70508 3.66256 5.70508 6.26155V7.11122" stroke="#111931" stroke-width="2" stroke-linecap="round"/>
<ellipse cx="10.4115" cy="12.6675" rx="2.35294" ry="2.22222" fill="#111931"/>
<path d="M9.41211 16.0003C9.41211 16.5526 9.85982 17.0003 10.4121 17.0003C10.9644 17.0003 11.4121 16.5526 11.4121 16.0003H9.41211ZM9.41211 12.667V16.0003H11.4121V12.667H9.41211Z" fill="#111931"/>
</svg>
