<svg width="64" height="64" viewBox="0 0 64 64" fill="none" xmlns="http://www.w3.org/2000/svg">
<g opacity="0.9">
<rect width="64" height="64" rx="6" fill="#5B62F5"/>
<path d="M31.9981 52C31.9981 52 34.5651 52 36.2866 50.2138C38.29 48.2765 37.3882 46.0216 40.2267 43.6782C42.9423 41.4597 46.3649 43.0376 46.3649 43.0376C48.7269 38.2257 47.4408 32.6275 47.4408 32.6275C51.4629 21.8998 48.1172 14.2237 47.241 12C44.3615 16.088 40.7545 18.921 36.4916 20.8166C35.0108 20.4052 33.4942 20.1864 31.9981 20.2021C30.5071 20.1864 28.9854 20.4052 27.5047 20.8166C23.2469 18.9158 19.6347 16.088 16.7552 12C15.8791 14.2237 12.5333 21.8998 16.5554 32.6275C16.5554 32.6275 15.2694 38.2257 17.6314 43.0376C17.6314 43.0376 21.054 41.4597 23.7695 43.6782C26.6132 46.0216 25.7063 48.2765 27.7096 50.2138C29.4312 52 31.9981 52 31.9981 52Z" fill="white"/>
<path d="M28.8163 40.0843C28.7087 36.5223 25.2553 35.3766 22.8984 36.8764C22.8984 36.8764 23.2673 38.4075 24.9889 39.1782C26.3928 39.8083 26.9974 38.9647 28.8163 40.0843Z" fill="#5B62F5"/>
<path d="M17.2998 15.3584C15.9113 20.3109 16.5107 26.5757 18.7037 31.1376C20.9478 29.5232 23.3047 27.0288 24.56 24.3885C21.6037 22.1648 19.1238 20.0505 17.2998 15.3584Z" fill="#5B62F5"/>
<path d="M35.1797 40.0843C35.2873 36.5223 38.7406 35.3766 41.0975 36.8764C41.0975 36.8764 40.7286 38.4075 39.0071 39.1782C37.6032 39.8083 36.9986 38.9647 35.1797 40.0843Z" fill="#5B62F5"/>
<path d="M46.6977 15.3584C48.0862 20.3109 47.4868 26.5757 45.2938 31.1376C43.0497 29.5232 40.6928 27.0288 39.4375 24.3885C42.3939 22.1648 44.8737 20.0505 46.6977 15.3584Z" fill="#5B62F5"/>
<path d="M31.9995 51.8071C33.2333 51.8071 34.2335 50.9118 34.2335 49.8074C34.2335 48.7029 33.2333 47.8076 31.9995 47.8076C30.7658 47.8076 29.7656 48.7029 29.7656 49.8074C29.7656 50.9118 30.7658 51.8071 31.9995 51.8071Z" fill="#5B62F5"/>
</g>
</svg>
