<svg width="64" height="64" viewBox="0 0 64 64" fill="none" xmlns="http://www.w3.org/2000/svg">
<g clip-path="url(#clip0_13807_42019)">
<path d="M64 0H0V64H64V0Z" fill="#F8F3E0"/>
<path fill-rule="evenodd" clip-rule="evenodd" d="M24.4961 31.9935C24.4961 27.8498 27.8558 24.4941 31.9954 24.4941C36.1351 24.4941 39.4948 27.8538 39.4948 31.9935C39.4948 36.1331 36.1351 39.4928 31.9954 39.4928C27.8558 39.4928 24.4961 36.1331 24.4961 31.9935ZM31.9954 25.93C28.6477 25.93 25.932 28.6458 25.932 31.9935C25.932 35.3411 28.6477 38.0569 31.9954 38.0569C35.3431 38.0569 38.0589 35.3411 38.0589 31.9935C38.0589 28.6458 35.3431 25.93 31.9954 25.93Z" fill="#101114"/>
<path fill-rule="evenodd" clip-rule="evenodd" d="M46.2226 16.3914C43.2869 18.6752 39.3752 22.1109 35.0556 26.2345C34.7676 26.5065 34.3157 26.4985 34.0397 26.2105C33.7677 25.9226 33.7757 25.4706 34.0637 25.1946C38.4033 21.055 42.355 17.5833 45.3427 15.2595C46.8346 14.0996 48.1025 13.2077 49.0744 12.6598C49.5543 12.3878 49.9983 12.1798 50.3823 12.0758C50.5742 12.0238 50.7862 11.9878 51.0022 12.0038C51.2222 12.0198 51.4862 12.0958 51.6981 12.3078C51.9461 12.5598 52.0061 12.8758 52.0021 13.1157C52.0021 13.3557 51.9421 13.5997 51.8621 13.8237C51.7061 14.2796 51.4182 14.8316 51.0382 15.4435C50.2703 16.6834 49.0504 18.3233 47.4825 20.2431C44.3388 24.0867 39.7392 29.1143 34.4316 34.4218C29.1201 39.7333 24.0925 44.3289 20.2529 47.4726C18.337 49.0404 16.6972 50.2643 15.4533 51.0283C14.8374 51.4082 14.2894 51.6962 13.8334 51.8522C13.6055 51.9282 13.3655 51.9882 13.1255 51.9922C12.8855 51.9922 12.5696 51.9362 12.3176 51.6842C12.1016 51.4682 12.0296 51.2042 12.0136 50.9843C11.9976 50.7723 12.0336 50.5563 12.0856 50.3683C12.1896 49.9884 12.3976 49.5404 12.6695 49.0604C13.2175 48.0885 14.1094 46.8166 15.2693 45.3288C17.5931 42.3411 21.0608 38.3894 25.2045 34.0458C25.4764 33.7578 25.9324 33.7498 26.2204 34.0218C26.5083 34.2938 26.5163 34.7498 26.2444 35.0377C22.1207 39.3613 18.689 43.273 16.4052 46.2087C15.2613 47.6806 14.4214 48.8885 13.9254 49.7644C13.7854 50.0164 13.6775 50.2283 13.6015 50.4043C13.5175 50.4403 13.4415 50.4723 13.3735 50.4963C13.2175 50.5483 13.1415 50.5563 13.1215 50.5563C13.1215 50.5563 13.2335 50.5563 13.3415 50.6683C13.4415 50.7683 13.4535 50.8723 13.4535 50.8843C13.4535 50.8763 13.4535 50.8363 13.4815 50.7443C13.5055 50.6523 13.5495 50.5363 13.6055 50.4043C13.8894 50.2803 14.2574 50.0844 14.7094 49.8044C15.8693 49.0884 17.4531 47.9125 19.353 46.3567C23.1486 43.253 28.1402 38.6894 33.4277 33.4019C38.7153 28.1144 43.2789 23.1228 46.3826 19.3272C47.9385 17.4273 49.1104 15.8435 49.8303 14.6836C50.1103 14.2316 50.3063 13.8637 50.4303 13.5757C50.5662 13.5157 50.6782 13.4757 50.7702 13.4517C50.8622 13.4277 50.9022 13.4237 50.9102 13.4237C50.9102 13.4237 50.7942 13.4117 50.6942 13.3117C50.5862 13.2037 50.5822 13.0917 50.5822 13.0917C50.5822 13.1157 50.5742 13.1917 50.5222 13.3477C50.4982 13.4157 50.4703 13.4917 50.4343 13.5757C50.2583 13.6517 50.0463 13.7597 49.7943 13.8997C48.9144 14.3956 47.7105 15.2355 46.2386 16.3794L46.2226 16.3914Z" fill="#101114"/>
<path fill-rule="evenodd" clip-rule="evenodd" d="M13.5877 13.5877C13.6637 13.7637 13.7717 13.9756 13.9117 14.2276C14.4076 15.1075 15.2476 16.3114 16.3915 17.7833C18.6753 20.719 22.111 24.6307 26.2346 28.9543C26.5066 29.2422 26.4986 29.6942 26.2106 29.9702C25.9226 30.2421 25.4707 30.2341 25.1947 29.9462C21.055 25.6026 17.5833 21.6549 15.2596 18.6672C14.0997 17.1793 13.2077 15.9075 12.6598 14.9355C12.3878 14.4556 12.1798 14.0116 12.0758 13.6277C12.0238 13.4357 11.9878 13.2237 12.0038 13.0117C12.0198 12.7917 12.0958 12.5278 12.3078 12.3158C12.5598 12.0638 12.8758 12.0078 13.1157 12.0078C13.3557 12.0078 13.5997 12.0678 13.8237 12.1478C14.2796 12.3038 14.8316 12.5918 15.4435 12.9717C16.6834 13.7397 18.3233 14.9595 20.2431 16.5274C24.0868 19.6711 29.1143 24.2707 34.4219 29.5782C39.7334 34.8897 44.329 39.9173 47.4727 43.7569C49.0406 45.6727 50.2645 47.3126 51.0284 48.5565C51.4084 49.1724 51.6964 49.7204 51.8524 50.1763C51.9284 50.4043 51.9883 50.6443 51.9924 50.8843C51.9924 51.1242 51.9364 51.4402 51.6844 51.6922C51.4684 51.9082 51.2044 51.9802 50.9844 51.9962C50.7725 52.0121 50.5565 51.9762 50.3685 51.9242C49.9885 51.8202 49.5406 51.6122 49.0606 51.3402C48.0887 50.7923 46.8168 49.9003 45.3289 48.7405C42.3412 46.4167 38.3895 42.949 34.0459 38.8054C33.7579 38.5334 33.7499 38.0774 34.0219 37.7895C34.2939 37.5015 34.7499 37.4935 35.0378 37.7655C39.3615 41.8891 43.2731 45.3208 46.2089 47.6046C47.6807 48.7485 48.8886 49.5884 49.7645 50.0843C50.0165 50.2243 50.2285 50.3323 50.4045 50.4083C50.2805 50.1243 50.0845 49.7564 49.8045 49.3044C49.0886 48.1445 47.9127 46.5606 46.3568 44.6608C43.2531 40.8652 38.6895 35.8736 33.402 30.5861C28.1144 25.2986 23.1229 20.735 19.3272 17.6313C17.4274 16.0754 15.8435 14.9035 14.6836 14.1836C14.2316 13.9036 13.8637 13.7077 13.5797 13.5837L13.5877 13.5877Z" fill="#101114"/>
</g>
<defs>
<clipPath id="clip0_13807_42019">
<rect width="64" height="64" rx="6" fill="white"/>
</clipPath>
</defs>
</svg>
