<svg width="417" height="73" viewBox="0 0 417 73" fill="none" xmlns="http://www.w3.org/2000/svg">
<rect x="0.25" y="35" width="416" height="6" rx="3" fill="#2EE09A"/>
<circle cx="7.25" cy="38" r="7" fill="#2EE09A"/>
<circle cx="409.25" cy="38" r="7" fill="#2EE09A"/>
<circle cx="325.25" cy="38" r="14" fill="url(#paint0_linear_10887_33376)"/>
<g filter="url(#filter0_d_10887_33376)">
<circle cx="325.25" cy="37.9996" r="7.63636" fill="url(#paint1_linear_10887_33376)"/>
</g>
<path d="M4.302 63.376C3.96067 63.376 3.63533 63.44 3.326 63.568C3.02733 63.6853 2.70733 63.8827 2.366 64.16L1.486 62.816C1.902 62.4747 2.35 62.2133 2.83 62.032C3.32067 61.84 3.89667 61.744 4.558 61.744C5.07 61.744 5.52333 61.8187 5.918 61.968C6.32333 62.1173 6.66467 62.3253 6.942 62.592C7.21933 62.8587 7.42733 63.1733 7.566 63.536C7.71533 63.888 7.79 64.2773 7.79 64.704C7.79 65.408 7.53933 66.1493 7.038 66.928C6.53667 67.696 5.81667 68.5227 4.878 69.408L3.87 70.352H7.902V72H1.726L1.342 70.592L2.782 69.152C3.31533 68.6187 3.76333 68.1493 4.126 67.744C4.48867 67.328 4.782 66.9547 5.006 66.624C5.23 66.2933 5.39 65.9893 5.486 65.712C5.582 65.4347 5.63 65.1573 5.63 64.88C5.63 64.3893 5.502 64.016 5.246 63.76C5.00067 63.504 4.686 63.376 4.302 63.376ZM13.4898 68.096L16.1937 72H13.7458L12.9458 70.816L12.1618 69.424L11.4418 70.8L10.6738 72H8.25775L10.9298 68.096L8.41775 64.368H10.7858L11.5698 65.568L12.2738 66.896L12.9458 65.568L13.6658 64.368H15.9858L13.4898 68.096Z" fill="white"/>
<path d="M380.753 63.376C380.412 63.376 380.087 63.44 379.777 63.568C379.479 63.6853 379.159 63.8827 378.817 64.16L377.937 62.816C378.353 62.4747 378.801 62.2133 379.281 62.032C379.772 61.84 380.348 61.744 381.009 61.744C381.521 61.744 381.975 61.8187 382.369 61.968C382.775 62.1173 383.116 62.3253 383.393 62.592C383.671 62.8587 383.879 63.1733 384.017 63.536C384.167 63.888 384.241 64.2773 384.241 64.704C384.241 65.408 383.991 66.1493 383.489 66.928C382.988 67.696 382.268 68.5227 381.329 69.408L380.321 70.352H384.353V72H378.177L377.793 70.592L379.233 69.152C379.767 68.6187 380.215 68.1493 380.577 67.744C380.94 67.328 381.233 66.9547 381.457 66.624C381.681 66.2933 381.841 65.9893 381.937 65.712C382.033 65.4347 382.081 65.1573 382.081 64.88C382.081 64.3893 381.953 64.016 381.697 63.76C381.452 63.504 381.137 63.376 380.753 63.376ZM389.301 61.744C389.898 61.744 390.448 61.8453 390.949 62.048C391.461 62.24 391.898 62.5493 392.261 62.976C392.634 63.392 392.922 63.9307 393.125 64.592C393.338 65.2427 393.445 66.0267 393.445 66.944C393.445 67.8507 393.333 68.6347 393.109 69.296C392.885 69.9467 392.581 70.4853 392.197 70.912C391.813 71.3387 391.37 71.6587 390.869 71.872C390.368 72.0747 389.84 72.176 389.285 72.176C388.688 72.176 388.133 72.08 387.621 71.888C387.12 71.6853 386.682 71.3707 386.309 70.944C385.936 70.5173 385.642 69.9733 385.429 69.312C385.226 68.6507 385.125 67.8613 385.125 66.944C385.125 66.0693 385.237 65.3067 385.461 64.656C385.696 63.9947 386.005 63.4507 386.389 63.024C386.773 62.5973 387.216 62.2773 387.717 62.064C388.229 61.8507 388.757 61.744 389.301 61.744ZM387.317 66.944C387.317 67.6587 387.37 68.2507 387.477 68.72C387.584 69.1893 387.728 69.5627 387.909 69.84C388.101 70.1173 388.314 70.3147 388.549 70.432C388.794 70.5387 389.045 70.592 389.301 70.592C389.557 70.592 389.802 70.5333 390.037 70.416C390.282 70.2987 390.49 70.1013 390.661 69.824C390.842 69.5467 390.986 69.1733 391.093 68.704C391.2 68.2347 391.253 67.648 391.253 66.944C391.253 66.2293 391.2 65.6427 391.093 65.184C390.986 64.7147 390.842 64.3467 390.661 64.08C390.49 63.8027 390.282 63.6107 390.037 63.504C389.802 63.3867 389.557 63.328 389.301 63.328C389.045 63.328 388.794 63.3867 388.549 63.504C388.314 63.6107 388.101 63.8027 387.909 64.08C387.728 64.3573 387.584 64.7307 387.477 65.2C387.37 65.6587 387.317 66.24 387.317 66.944ZM398.258 61.744C398.856 61.744 399.405 61.8453 399.906 62.048C400.418 62.24 400.856 62.5493 401.218 62.976C401.592 63.392 401.88 63.9307 402.082 64.592C402.296 65.2427 402.402 66.0267 402.402 66.944C402.402 67.8507 402.29 68.6347 402.066 69.296C401.842 69.9467 401.538 70.4853 401.154 70.912C400.77 71.3387 400.328 71.6587 399.826 71.872C399.325 72.0747 398.797 72.176 398.242 72.176C397.645 72.176 397.09 72.08 396.578 71.888C396.077 71.6853 395.64 71.3707 395.266 70.944C394.893 70.5173 394.6 69.9733 394.386 69.312C394.184 68.6507 394.082 67.8613 394.082 66.944C394.082 66.0693 394.194 65.3067 394.418 64.656C394.653 63.9947 394.962 63.4507 395.346 63.024C395.73 62.5973 396.173 62.2773 396.674 62.064C397.186 61.8507 397.714 61.744 398.258 61.744ZM396.274 66.944C396.274 67.6587 396.328 68.2507 396.434 68.72C396.541 69.1893 396.685 69.5627 396.866 69.84C397.058 70.1173 397.272 70.3147 397.506 70.432C397.752 70.5387 398.002 70.592 398.258 70.592C398.514 70.592 398.76 70.5333 398.994 70.416C399.24 70.2987 399.448 70.1013 399.618 69.824C399.8 69.5467 399.944 69.1733 400.05 68.704C400.157 68.2347 400.21 67.648 400.21 66.944C400.21 66.2293 400.157 65.6427 400.05 65.184C399.944 64.7147 399.8 64.3467 399.618 64.08C399.448 63.8027 399.24 63.6107 398.994 63.504C398.76 63.3867 398.514 63.328 398.258 63.328C398.002 63.328 397.752 63.3867 397.506 63.504C397.272 63.6107 397.058 63.8027 396.866 64.08C396.685 64.3573 396.541 64.7307 396.434 65.2C396.328 65.6587 396.274 66.24 396.274 66.944ZM405.952 61.92H407.696V72H405.6V63.872L403.728 64.768L403.232 63.184L405.952 61.92ZM413.923 68.096L416.627 72H414.179L413.379 70.816L412.595 69.424L411.875 70.8L411.107 72H408.691L411.363 68.096L408.851 64.368H411.219L412.003 65.568L412.707 66.896L413.379 65.568L414.099 64.368H416.419L413.923 68.096Z" fill="white"/>
<rect x="298.25" width="54" height="20" rx="7" fill="#3A466B"/>
<path d="M316.442 7.532C316.186 7.532 315.942 7.58 315.71 7.676C315.486 7.764 315.246 7.912 314.99 8.12L314.33 7.112C314.642 6.856 314.978 6.66 315.338 6.524C315.706 6.38 316.138 6.308 316.634 6.308C317.018 6.308 317.358 6.364 317.654 6.476C317.958 6.588 318.214 6.744 318.422 6.944C318.63 7.144 318.786 7.38 318.89 7.652C319.002 7.916 319.058 8.208 319.058 8.528C319.058 9.056 318.87 9.612 318.494 10.196C318.118 10.772 317.578 11.392 316.874 12.056L316.118 12.764H319.142V14H314.51L314.222 12.944L315.302 11.864C315.702 11.464 316.038 11.112 316.31 10.808C316.582 10.496 316.802 10.216 316.97 9.968C317.138 9.72 317.258 9.492 317.33 9.284C317.402 9.076 317.438 8.868 317.438 8.66C317.438 8.292 317.342 8.012 317.15 7.82C316.966 7.628 316.73 7.532 316.442 7.532ZM322.853 6.308C323.301 6.308 323.713 6.384 324.089 6.536C324.473 6.68 324.801 6.912 325.073 7.232C325.353 7.544 325.569 7.948 325.721 8.444C325.881 8.932 325.961 9.52 325.961 10.208C325.961 10.888 325.877 11.476 325.709 11.972C325.541 12.46 325.313 12.864 325.025 13.184C324.737 13.504 324.405 13.744 324.029 13.904C323.653 14.056 323.257 14.132 322.841 14.132C322.393 14.132 321.977 14.06 321.593 13.916C321.217 13.764 320.889 13.528 320.609 13.208C320.329 12.888 320.109 12.48 319.949 11.984C319.797 11.488 319.721 10.896 319.721 10.208C319.721 9.552 319.805 8.98 319.973 8.492C320.149 7.996 320.381 7.588 320.669 7.268C320.957 6.948 321.289 6.708 321.665 6.548C322.049 6.388 322.445 6.308 322.853 6.308ZM321.365 10.208C321.365 10.744 321.405 11.188 321.485 11.54C321.565 11.892 321.673 12.172 321.809 12.38C321.953 12.588 322.113 12.736 322.289 12.824C322.473 12.904 322.661 12.944 322.853 12.944C323.045 12.944 323.229 12.9 323.405 12.812C323.589 12.724 323.745 12.576 323.873 12.368C324.009 12.16 324.117 11.88 324.197 11.528C324.277 11.176 324.317 10.736 324.317 10.208C324.317 9.672 324.277 9.232 324.197 8.888C324.117 8.536 324.009 8.26 323.873 8.06C323.745 7.852 323.589 7.708 323.405 7.628C323.229 7.54 323.045 7.496 322.853 7.496C322.661 7.496 322.473 7.54 322.289 7.628C322.113 7.708 321.953 7.852 321.809 8.06C321.673 8.268 321.565 8.548 321.485 8.9C321.405 9.244 321.365 9.68 321.365 10.208ZM328.623 6.44H329.931V14H328.359V7.904L326.955 8.576L326.583 7.388L328.623 6.44ZM334.601 11.072L336.629 14H334.793L334.193 13.112L333.605 12.068L333.065 13.1L332.489 14H330.677L332.681 11.072L330.797 8.276H332.573L333.161 9.176L333.689 10.172L334.193 9.176L334.733 8.276H336.473L334.601 11.072Z" fill="white"/>
<defs>
<filter id="filter0_d_10887_33376" x="317.113" y="30.3633" width="16.2729" height="16.7734" filterUnits="userSpaceOnUse" color-interpolation-filters="sRGB">
<feFlood flood-opacity="0" result="BackgroundImageFix"/>
<feColorMatrix in="SourceAlpha" type="matrix" values="0 0 0 0 0 0 0 0 0 0 0 0 0 0 0 0 0 0 127 0" result="hardAlpha"/>
<feOffset dy="1"/>
<feGaussianBlur stdDeviation="0.25"/>
<feComposite in2="hardAlpha" operator="out"/>
<feColorMatrix type="matrix" values="0 0 0 0 0 0 0 0 0 0 0 0 0 0 0 0 0 0 0.25 0"/>
<feBlend mode="normal" in2="BackgroundImageFix" result="effect1_dropShadow_10887_33376"/>
<feBlend mode="normal" in="SourceGraphic" in2="effect1_dropShadow_10887_33376" result="shape"/>
</filter>
<linearGradient id="paint0_linear_10887_33376" x1="325.25" y1="24" x2="325.25" y2="52" gradientUnits="userSpaceOnUse">
<stop stop-color="#EF84F5"/>
<stop offset="1" stop-color="#9C3EBD"/>
</linearGradient>
<linearGradient id="paint1_linear_10887_33376" x1="325.25" y1="30.3633" x2="325.25" y2="45.636" gradientUnits="userSpaceOnUse">
<stop stop-color="white"/>
<stop offset="1" stop-color="#A2A2A2"/>
</linearGradient>
</defs>
</svg>
