<svg width="24" height="24" viewBox="0 0 24 24" fill="none" xmlns="http://www.w3.org/2000/svg">
<mask id="path-1-inside-1_13775_25284" fill="white">
<path fill-rule="evenodd" clip-rule="evenodd" d="M4.38804 8.73228L5.89121 6.8095C6.385 6.17812 6.93036 5.56049 7.52383 4.96577C9.91606 2.57318 12.7013 0.958629 15.3135 0.313498C17.9028 -0.325903 20.5024 -0.0405787 22.2438 1.66564C22.2599 1.68053 22.2748 1.69543 22.2897 1.71147C22.3103 1.7321 22.3309 1.75387 22.3515 1.77564C24.0449 3.52082 24.3244 6.11624 23.684 8.70135C23.0367 11.3105 21.4235 14.0916 19.0347 16.4807C18.4401 17.0754 17.8237 17.6197 17.1913 18.1136L15.2688 19.617L15.5541 17.3665C15.1049 17.7928 14.6467 18.2076 14.1804 18.6086C12.0769 20.4145 9.88856 21.8675 7.879 22.7647L5.4799 23.8361L6.62904 21.2625C5.60363 21.8778 4.69967 22.3419 3.95382 22.6857C3.25494 23.0077 2.69469 23.2254 2.30286 23.3629C2.10695 23.4316 1.95342 23.4809 1.84458 23.5141C1.79073 23.5302 1.74834 23.5428 1.71741 23.552C1.70251 23.5565 1.68991 23.56 1.68075 23.5623C1.67616 23.5634 1.67158 23.5646 1.66929 23.5657H1.66471L1.66242 23.568C1.66242 23.568 1.57801 23.2437 1.40921 22.5951C1.40921 22.5951 1.84114 22.4829 2.60991 22.1735C3.65365 21.7529 5.3195 20.968 7.36916 19.6067C7.88244 19.2664 8.41863 18.8894 8.97658 18.4734L7.46998 21.8469C7.9317 21.6406 8.40602 21.4023 8.88951 21.133C10.3915 20.2988 11.976 19.177 13.5273 17.8455C14.2972 17.1843 15.0454 16.483 15.7603 15.7542C16.1624 15.344 16.5543 14.9258 16.9323 14.5018L16.5749 17.3218C16.9587 17.0216 17.3379 16.7007 17.7103 16.3604C17.9177 16.1702 18.1239 15.9731 18.3267 15.7703C22.8877 11.2085 24.3554 5.27172 21.6274 2.47005C21.6125 2.454 21.5965 2.43796 21.5816 2.42192C21.5702 2.41046 21.5587 2.399 21.5472 2.38754C18.7517 -0.357987 12.8055 1.10759 8.23646 5.67622C8.03367 5.87904 7.83661 6.0853 7.64642 6.2927C7.30615 6.66397 6.98535 7.04326 6.68518 7.42827L9.50361 7.07076C9.07855 7.4489 8.66037 7.84079 8.25021 8.24299C7.52154 8.95802 6.82037 9.70628 6.1593 10.4763C4.82685 12.0278 3.70635 13.6126 2.87228 15.1148C2.60418 15.5973 2.36588 16.0728 2.1585 16.5346L5.53718 15.0255C5.12129 15.5824 4.7455 16.1186 4.40523 16.632C3.04528 18.682 2.25818 20.3515 1.83542 21.3966C1.52493 22.1643 1.41151 22.5951 1.41151 22.5951C0.763802 22.424 0.43995 22.3381 0.43995 22.3373V22.335L0.442241 22.3305C0.442241 22.327 0.444533 22.3236 0.445679 22.319C0.44797 22.3098 0.451407 22.2972 0.45599 22.2823C0.465155 22.2514 0.477758 22.209 0.493798 22.1551C0.527023 22.0474 0.577434 21.8927 0.647322 21.6968C0.787098 21.3037 1.00593 20.7434 1.32902 20.0433C1.67387 19.2973 2.13788 18.3944 2.75198 17.3711L0.171855 18.5238L1.24309 16.1244C2.14017 14.1145 3.59293 11.9247 5.39855 9.82202C5.79955 9.35564 6.21429 8.89615 6.6405 8.44811L4.39148 8.73343L4.38804 8.73228ZM1.41036 22.594L1.66356 23.5669L0 24L0.438804 22.3373L1.41036 22.594Z"/>
<path d="M1.94704 1.90216C3.6313 0.217084 6.0776 0.00639516 8.81552 0.924547C9.93852 1.30114 11.1083 1.86711 12.2905 2.59687C12.3136 2.58414 12.3367 2.57148 12.3598 2.55889C8.26966 0.0241768 4.31635 -0.565549 1.89843 1.85356C-0.820378 4.57278 0.261938 9.23086 3.63467 13.8429C3.64791 13.8223 3.66121 13.8016 3.67455 13.781C2.43507 12.0824 1.50842 10.3794 0.969562 8.77215C0.0515543 6.03396 0.262211 3.58726 1.94704 1.90216Z"/>
<path d="M4.88228 15.3174L4.81697 15.3465C4.90322 15.449 4.99054 15.5513 5.07891 15.6535C5.09258 15.6344 5.10629 15.6152 5.12005 15.596C5.03992 15.5032 4.96066 15.4103 4.88228 15.3174Z"/>
<path d="M8.40526 18.891C8.38608 18.9047 8.36693 18.9185 8.3478 18.9321C8.44991 19.0211 8.55217 19.109 8.65455 19.1959L8.68376 19.1305C8.59082 19.0516 8.49798 18.9717 8.40526 18.891Z"/>
<path d="M10.2078 20.3404C10.1872 20.3537 10.1665 20.3669 10.1459 20.3801C14.7666 23.7983 19.4308 24.9239 22.198 22.1563C24.6625 19.6914 24.0394 15.7215 21.4593 11.6178C21.4468 11.6409 21.4342 11.664 21.4215 11.6871C22.1744 12.8892 22.7581 14.0787 23.1441 15.2206C24.0677 17.9527 23.8573 20.3995 22.1494 22.1077C20.4415 23.8158 17.9951 24.0262 15.2634 23.1025C13.6408 22.5538 11.9223 21.606 10.2078 20.3404Z"/>
<path d="M18.2889 15.8046C18.3706 15.9873 18.444 16.1644 18.5088 16.3352C18.7322 16.9173 18.8525 17.4226 18.8858 17.7916C18.9041 17.9807 18.8995 18.1296 18.8869 18.2374C20.0613 18.4494 21.3192 18.4516 22.6357 18.14C22.6471 17.2806 22.4776 16.428 22.1946 15.5571C21.9849 14.9177 21.7099 14.268 21.3765 13.608C21.2146 13.2883 21.0391 12.9663 20.8505 12.6427C20.1624 13.7189 19.3166 14.7765 18.3244 15.7691C18.3125 15.781 18.3007 15.7928 18.2889 15.8046Z"/>
<path d="M11.3508 3.15563C10.3917 2.59987 9.44885 2.16066 8.53091 1.85356C7.66017 1.56479 6.80662 1.39062 5.94735 1.39177C5.93947 1.39177 5.93103 1.39232 5.92245 1.39288C5.91357 1.39347 5.90453 1.39406 5.89579 1.39406C5.58416 2.71068 5.58645 3.96885 5.79726 5.14338C5.82132 5.13994 5.84767 5.13765 5.87746 5.13536C6.16847 5.11359 6.68862 5.17776 7.32907 5.38974C7.59518 5.47775 7.88318 5.58898 8.18721 5.72344C8.20283 5.70768 8.21848 5.69194 8.23417 5.67622C9.22378 4.68671 10.278 3.84277 11.3508 3.15563Z"/>
<path d="M5.21868 6.03259C5.26336 6.39813 5.38251 6.8771 5.59103 7.42254C5.79153 7.95079 6.07566 8.54092 6.43198 9.16543C7.3451 10.8396 8.49195 12.1653 9.2802 13.0053C9.55516 13.3055 9.8393 13.6057 10.136 13.9025C10.4179 14.1844 10.702 14.4537 10.9861 14.7149C11.8259 15.5067 13.1802 16.687 14.8964 17.6197C15.1153 17.7446 15.3318 17.8627 15.5415 17.9704C16.0651 18.2362 16.5577 18.4402 16.9931 18.5834C17.3803 18.7129 17.7229 18.7862 18.0013 18.8218C19.4334 19.1495 20.9996 19.1896 22.6483 18.7324C22.6185 19.2137 22.5245 19.7007 22.3389 20.1739C22.1522 20.6483 21.8646 21.1066 21.4831 21.4848C21.0317 21.9374 20.4737 22.2548 19.9066 22.4359C19.4082 22.5951 18.903 22.6593 18.4023 22.6616C17.5258 22.6639 16.6562 22.4851 15.7672 22.1895C14.4347 21.7449 13.0541 21.0264 11.6472 20.0822C10.2414 19.1369 8.81618 17.9646 7.44592 16.5942C6.25325 15.4013 5.20951 14.1661 4.33534 12.9388C3.68 12.0175 3.1209 11.102 2.6672 10.2047C2.32807 9.53096 2.04623 8.86864 1.83198 8.21664C1.51347 7.23691 1.33474 6.2801 1.38859 5.31298C1.41723 4.83056 1.51118 4.34127 1.69908 3.86573C1.88583 3.39133 2.1734 2.93413 2.55492 2.55484C3.00632 2.10222 3.56428 1.78481 4.13141 1.60376C4.52094 1.47886 4.91507 1.41354 5.30804 1.38948C4.85091 3.03611 4.89101 4.60024 5.21753 6.03144H5.21639L5.21868 6.03259Z"/>
</mask>
<path fill-rule="evenodd" clip-rule="evenodd" d="M4.38804 8.73228L5.89121 6.8095C6.385 6.17812 6.93036 5.56049 7.52383 4.96577C9.91606 2.57318 12.7013 0.958629 15.3135 0.313498C17.9028 -0.325903 20.5024 -0.0405787 22.2438 1.66564C22.2599 1.68053 22.2748 1.69543 22.2897 1.71147C22.3103 1.7321 22.3309 1.75387 22.3515 1.77564C24.0449 3.52082 24.3244 6.11624 23.684 8.70135C23.0367 11.3105 21.4235 14.0916 19.0347 16.4807C18.4401 17.0754 17.8237 17.6197 17.1913 18.1136L15.2688 19.617L15.5541 17.3665C15.1049 17.7928 14.6467 18.2076 14.1804 18.6086C12.0769 20.4145 9.88856 21.8675 7.879 22.7647L5.4799 23.8361L6.62904 21.2625C5.60363 21.8778 4.69967 22.3419 3.95382 22.6857C3.25494 23.0077 2.69469 23.2254 2.30286 23.3629C2.10695 23.4316 1.95342 23.4809 1.84458 23.5141C1.79073 23.5302 1.74834 23.5428 1.71741 23.552C1.70251 23.5565 1.68991 23.56 1.68075 23.5623C1.67616 23.5634 1.67158 23.5646 1.66929 23.5657H1.66471L1.66242 23.568C1.66242 23.568 1.57801 23.2437 1.40921 22.5951C1.40921 22.5951 1.84114 22.4829 2.60991 22.1735C3.65365 21.7529 5.3195 20.968 7.36916 19.6067C7.88244 19.2664 8.41863 18.8894 8.97658 18.4734L7.46998 21.8469C7.9317 21.6406 8.40602 21.4023 8.88951 21.133C10.3915 20.2988 11.976 19.177 13.5273 17.8455C14.2972 17.1843 15.0454 16.483 15.7603 15.7542C16.1624 15.344 16.5543 14.9258 16.9323 14.5018L16.5749 17.3218C16.9587 17.0216 17.3379 16.7007 17.7103 16.3604C17.9177 16.1702 18.1239 15.9731 18.3267 15.7703C22.8877 11.2085 24.3554 5.27172 21.6274 2.47005C21.6125 2.454 21.5965 2.43796 21.5816 2.42192C21.5702 2.41046 21.5587 2.399 21.5472 2.38754C18.7517 -0.357987 12.8055 1.10759 8.23646 5.67622C8.03367 5.87904 7.83661 6.0853 7.64642 6.2927C7.30615 6.66397 6.98535 7.04326 6.68518 7.42827L9.50361 7.07076C9.07855 7.4489 8.66037 7.84079 8.25021 8.24299C7.52154 8.95802 6.82037 9.70628 6.1593 10.4763C4.82685 12.0278 3.70635 13.6126 2.87228 15.1148C2.60418 15.5973 2.36588 16.0728 2.1585 16.5346L5.53718 15.0255C5.12129 15.5824 4.7455 16.1186 4.40523 16.632C3.04528 18.682 2.25818 20.3515 1.83542 21.3966C1.52493 22.1643 1.41151 22.5951 1.41151 22.5951C0.763802 22.424 0.43995 22.3381 0.43995 22.3373V22.335L0.442241 22.3305C0.442241 22.327 0.444533 22.3236 0.445679 22.319C0.44797 22.3098 0.451407 22.2972 0.45599 22.2823C0.465155 22.2514 0.477758 22.209 0.493798 22.1551C0.527023 22.0474 0.577434 21.8927 0.647322 21.6968C0.787098 21.3037 1.00593 20.7434 1.32902 20.0433C1.67387 19.2973 2.13788 18.3944 2.75198 17.3711L0.171855 18.5238L1.24309 16.1244C2.14017 14.1145 3.59293 11.9247 5.39855 9.82202C5.79955 9.35564 6.21429 8.89615 6.6405 8.44811L4.39148 8.73343L4.38804 8.73228ZM1.41036 22.594L1.66356 23.5669L0 24L0.438804 22.3373L1.41036 22.594Z" fill="white"/>
<path d="M1.94704 1.90216C3.6313 0.217084 6.0776 0.00639516 8.81552 0.924547C9.93852 1.30114 11.1083 1.86711 12.2905 2.59687C12.3136 2.58414 12.3367 2.57148 12.3598 2.55889C8.26966 0.0241768 4.31635 -0.565549 1.89843 1.85356C-0.820378 4.57278 0.261938 9.23086 3.63467 13.8429C3.64791 13.8223 3.66121 13.8016 3.67455 13.781C2.43507 12.0824 1.50842 10.3794 0.969562 8.77215C0.0515543 6.03396 0.262211 3.58726 1.94704 1.90216Z" fill="white"/>
<path d="M4.88228 15.3174L4.81697 15.3465C4.90322 15.449 4.99054 15.5513 5.07891 15.6535C5.09258 15.6344 5.10629 15.6152 5.12005 15.596C5.03992 15.5032 4.96066 15.4103 4.88228 15.3174Z" fill="white"/>
<path d="M8.40526 18.891C8.38608 18.9047 8.36693 18.9185 8.3478 18.9321C8.44991 19.0211 8.55217 19.109 8.65455 19.1959L8.68376 19.1305C8.59082 19.0516 8.49798 18.9717 8.40526 18.891Z" fill="white"/>
<path d="M10.2078 20.3404C10.1872 20.3537 10.1665 20.3669 10.1459 20.3801C14.7666 23.7983 19.4308 24.9239 22.198 22.1563C24.6625 19.6914 24.0394 15.7215 21.4593 11.6178C21.4468 11.6409 21.4342 11.664 21.4215 11.6871C22.1744 12.8892 22.7581 14.0787 23.1441 15.2206C24.0677 17.9527 23.8573 20.3995 22.1494 22.1077C20.4415 23.8158 17.9951 24.0262 15.2634 23.1025C13.6408 22.5538 11.9223 21.606 10.2078 20.3404Z" fill="white"/>
<path d="M18.2889 15.8046C18.3706 15.9873 18.444 16.1644 18.5088 16.3352C18.7322 16.9173 18.8525 17.4226 18.8858 17.7916C18.9041 17.9807 18.8995 18.1296 18.8869 18.2374C20.0613 18.4494 21.3192 18.4516 22.6357 18.14C22.6471 17.2806 22.4776 16.428 22.1946 15.5571C21.9849 14.9177 21.7099 14.268 21.3765 13.608C21.2146 13.2883 21.0391 12.9663 20.8505 12.6427C20.1624 13.7189 19.3166 14.7765 18.3244 15.7691C18.3125 15.781 18.3007 15.7928 18.2889 15.8046Z" fill="white"/>
<path d="M11.3508 3.15563C10.3917 2.59987 9.44885 2.16066 8.53091 1.85356C7.66017 1.56479 6.80662 1.39062 5.94735 1.39177C5.93947 1.39177 5.93103 1.39232 5.92245 1.39288C5.91357 1.39347 5.90453 1.39406 5.89579 1.39406C5.58416 2.71068 5.58645 3.96885 5.79726 5.14338C5.82132 5.13994 5.84767 5.13765 5.87746 5.13536C6.16847 5.11359 6.68862 5.17776 7.32907 5.38974C7.59518 5.47775 7.88318 5.58898 8.18721 5.72344C8.20283 5.70768 8.21848 5.69194 8.23417 5.67622C9.22378 4.68671 10.278 3.84277 11.3508 3.15563Z" fill="white"/>
<path d="M5.21868 6.03259C5.26336 6.39813 5.38251 6.8771 5.59103 7.42254C5.79153 7.95079 6.07566 8.54092 6.43198 9.16543C7.3451 10.8396 8.49195 12.1653 9.2802 13.0053C9.55516 13.3055 9.8393 13.6057 10.136 13.9025C10.4179 14.1844 10.702 14.4537 10.9861 14.7149C11.8259 15.5067 13.1802 16.687 14.8964 17.6197C15.1153 17.7446 15.3318 17.8627 15.5415 17.9704C16.0651 18.2362 16.5577 18.4402 16.9931 18.5834C17.3803 18.7129 17.7229 18.7862 18.0013 18.8218C19.4334 19.1495 20.9996 19.1896 22.6483 18.7324C22.6185 19.2137 22.5245 19.7007 22.3389 20.1739C22.1522 20.6483 21.8646 21.1066 21.4831 21.4848C21.0317 21.9374 20.4737 22.2548 19.9066 22.4359C19.4082 22.5951 18.903 22.6593 18.4023 22.6616C17.5258 22.6639 16.6562 22.4851 15.7672 22.1895C14.4347 21.7449 13.0541 21.0264 11.6472 20.0822C10.2414 19.1369 8.81618 17.9646 7.44592 16.5942C6.25325 15.4013 5.20951 14.1661 4.33534 12.9388C3.68 12.0175 3.1209 11.102 2.6672 10.2047C2.32807 9.53096 2.04623 8.86864 1.83198 8.21664C1.51347 7.23691 1.33474 6.2801 1.38859 5.31298C1.41723 4.83056 1.51118 4.34127 1.69908 3.86573C1.88583 3.39133 2.1734 2.93413 2.55492 2.55484C3.00632 2.10222 3.56428 1.78481 4.13141 1.60376C4.52094 1.47886 4.91507 1.41354 5.30804 1.38948C4.85091 3.03611 4.89101 4.60024 5.21753 6.03144H5.21639L5.21868 6.03259Z" fill="white"/>
<path fill-rule="evenodd" clip-rule="evenodd" d="M4.38804 8.73228L5.89121 6.8095C6.385 6.17812 6.93036 5.56049 7.52383 4.96577C9.91606 2.57318 12.7013 0.958629 15.3135 0.313498C17.9028 -0.325903 20.5024 -0.0405787 22.2438 1.66564C22.2599 1.68053 22.2748 1.69543 22.2897 1.71147C22.3103 1.7321 22.3309 1.75387 22.3515 1.77564C24.0449 3.52082 24.3244 6.11624 23.684 8.70135C23.0367 11.3105 21.4235 14.0916 19.0347 16.4807C18.4401 17.0754 17.8237 17.6197 17.1913 18.1136L15.2688 19.617L15.5541 17.3665C15.1049 17.7928 14.6467 18.2076 14.1804 18.6086C12.0769 20.4145 9.88856 21.8675 7.879 22.7647L5.4799 23.8361L6.62904 21.2625C5.60363 21.8778 4.69967 22.3419 3.95382 22.6857C3.25494 23.0077 2.69469 23.2254 2.30286 23.3629C2.10695 23.4316 1.95342 23.4809 1.84458 23.5141C1.79073 23.5302 1.74834 23.5428 1.71741 23.552C1.70251 23.5565 1.68991 23.56 1.68075 23.5623C1.67616 23.5634 1.67158 23.5646 1.66929 23.5657H1.66471L1.66242 23.568C1.66242 23.568 1.57801 23.2437 1.40921 22.5951C1.40921 22.5951 1.84114 22.4829 2.60991 22.1735C3.65365 21.7529 5.3195 20.968 7.36916 19.6067C7.88244 19.2664 8.41863 18.8894 8.97658 18.4734L7.46998 21.8469C7.9317 21.6406 8.40602 21.4023 8.88951 21.133C10.3915 20.2988 11.976 19.177 13.5273 17.8455C14.2972 17.1843 15.0454 16.483 15.7603 15.7542C16.1624 15.344 16.5543 14.9258 16.9323 14.5018L16.5749 17.3218C16.9587 17.0216 17.3379 16.7007 17.7103 16.3604C17.9177 16.1702 18.1239 15.9731 18.3267 15.7703C22.8877 11.2085 24.3554 5.27172 21.6274 2.47005C21.6125 2.454 21.5965 2.43796 21.5816 2.42192C21.5702 2.41046 21.5587 2.399 21.5472 2.38754C18.7517 -0.357987 12.8055 1.10759 8.23646 5.67622C8.03367 5.87904 7.83661 6.0853 7.64642 6.2927C7.30615 6.66397 6.98535 7.04326 6.68518 7.42827L9.50361 7.07076C9.07855 7.4489 8.66037 7.84079 8.25021 8.24299C7.52154 8.95802 6.82037 9.70628 6.1593 10.4763C4.82685 12.0278 3.70635 13.6126 2.87228 15.1148C2.60418 15.5973 2.36588 16.0728 2.1585 16.5346L5.53718 15.0255C5.12129 15.5824 4.7455 16.1186 4.40523 16.632C3.04528 18.682 2.25818 20.3515 1.83542 21.3966C1.52493 22.1643 1.41151 22.5951 1.41151 22.5951C0.763802 22.424 0.43995 22.3381 0.43995 22.3373V22.335L0.442241 22.3305C0.442241 22.327 0.444533 22.3236 0.445679 22.319C0.44797 22.3098 0.451407 22.2972 0.45599 22.2823C0.465155 22.2514 0.477758 22.209 0.493798 22.1551C0.527023 22.0474 0.577434 21.8927 0.647322 21.6968C0.787098 21.3037 1.00593 20.7434 1.32902 20.0433C1.67387 19.2973 2.13788 18.3944 2.75198 17.3711L0.171855 18.5238L1.24309 16.1244C2.14017 14.1145 3.59293 11.9247 5.39855 9.82202C5.79955 9.35564 6.21429 8.89615 6.6405 8.44811L4.39148 8.73343L4.38804 8.73228ZM1.41036 22.594L1.66356 23.5669L0 24L0.438804 22.3373L1.41036 22.594Z" stroke="white" stroke-width="1.2" mask="url(#path-1-inside-1_13775_25284)"/>
<path d="M1.94704 1.90216C3.6313 0.217084 6.0776 0.00639516 8.81552 0.924547C9.93852 1.30114 11.1083 1.86711 12.2905 2.59687C12.3136 2.58414 12.3367 2.57148 12.3598 2.55889C8.26966 0.0241768 4.31635 -0.565549 1.89843 1.85356C-0.820378 4.57278 0.261938 9.23086 3.63467 13.8429C3.64791 13.8223 3.66121 13.8016 3.67455 13.781C2.43507 12.0824 1.50842 10.3794 0.969562 8.77215C0.0515543 6.03396 0.262211 3.58726 1.94704 1.90216Z" stroke="white" stroke-width="1.2" mask="url(#path-1-inside-1_13775_25284)"/>
<path d="M4.88228 15.3174L4.81697 15.3465C4.90322 15.449 4.99054 15.5513 5.07891 15.6535C5.09258 15.6344 5.10629 15.6152 5.12005 15.596C5.03992 15.5032 4.96066 15.4103 4.88228 15.3174Z" stroke="white" stroke-width="1.2" mask="url(#path-1-inside-1_13775_25284)"/>
<path d="M8.40526 18.891C8.38608 18.9047 8.36693 18.9185 8.3478 18.9321C8.44991 19.0211 8.55217 19.109 8.65455 19.1959L8.68376 19.1305C8.59082 19.0516 8.49798 18.9717 8.40526 18.891Z" stroke="white" stroke-width="1.2" mask="url(#path-1-inside-1_13775_25284)"/>
<path d="M10.2078 20.3404C10.1872 20.3537 10.1665 20.3669 10.1459 20.3801C14.7666 23.7983 19.4308 24.9239 22.198 22.1563C24.6625 19.6914 24.0394 15.7215 21.4593 11.6178C21.4468 11.6409 21.4342 11.664 21.4215 11.6871C22.1744 12.8892 22.7581 14.0787 23.1441 15.2206C24.0677 17.9527 23.8573 20.3995 22.1494 22.1077C20.4415 23.8158 17.9951 24.0262 15.2634 23.1025C13.6408 22.5538 11.9223 21.606 10.2078 20.3404Z" stroke="white" stroke-width="1.2" mask="url(#path-1-inside-1_13775_25284)"/>
<path d="M18.2889 15.8046C18.3706 15.9873 18.444 16.1644 18.5088 16.3352C18.7322 16.9173 18.8525 17.4226 18.8858 17.7916C18.9041 17.9807 18.8995 18.1296 18.8869 18.2374C20.0613 18.4494 21.3192 18.4516 22.6357 18.14C22.6471 17.2806 22.4776 16.428 22.1946 15.5571C21.9849 14.9177 21.7099 14.268 21.3765 13.608C21.2146 13.2883 21.0391 12.9663 20.8505 12.6427C20.1624 13.7189 19.3166 14.7765 18.3244 15.7691C18.3125 15.781 18.3007 15.7928 18.2889 15.8046Z" stroke="white" stroke-width="1.2" mask="url(#path-1-inside-1_13775_25284)"/>
<path d="M11.3508 3.15563C10.3917 2.59987 9.44885 2.16066 8.53091 1.85356C7.66017 1.56479 6.80662 1.39062 5.94735 1.39177C5.93947 1.39177 5.93103 1.39232 5.92245 1.39288C5.91357 1.39347 5.90453 1.39406 5.89579 1.39406C5.58416 2.71068 5.58645 3.96885 5.79726 5.14338C5.82132 5.13994 5.84767 5.13765 5.87746 5.13536C6.16847 5.11359 6.68862 5.17776 7.32907 5.38974C7.59518 5.47775 7.88318 5.58898 8.18721 5.72344C8.20283 5.70768 8.21848 5.69194 8.23417 5.67622C9.22378 4.68671 10.278 3.84277 11.3508 3.15563Z" stroke="white" stroke-width="1.2" mask="url(#path-1-inside-1_13775_25284)"/>
<path d="M5.21868 6.03259C5.26336 6.39813 5.38251 6.8771 5.59103 7.42254C5.79153 7.95079 6.07566 8.54092 6.43198 9.16543C7.3451 10.8396 8.49195 12.1653 9.2802 13.0053C9.55516 13.3055 9.8393 13.6057 10.136 13.9025C10.4179 14.1844 10.702 14.4537 10.9861 14.7149C11.8259 15.5067 13.1802 16.687 14.8964 17.6197C15.1153 17.7446 15.3318 17.8627 15.5415 17.9704C16.0651 18.2362 16.5577 18.4402 16.9931 18.5834C17.3803 18.7129 17.7229 18.7862 18.0013 18.8218C19.4334 19.1495 20.9996 19.1896 22.6483 18.7324C22.6185 19.2137 22.5245 19.7007 22.3389 20.1739C22.1522 20.6483 21.8646 21.1066 21.4831 21.4848C21.0317 21.9374 20.4737 22.2548 19.9066 22.4359C19.4082 22.5951 18.903 22.6593 18.4023 22.6616C17.5258 22.6639 16.6562 22.4851 15.7672 22.1895C14.4347 21.7449 13.0541 21.0264 11.6472 20.0822C10.2414 19.1369 8.81618 17.9646 7.44592 16.5942C6.25325 15.4013 5.20951 14.1661 4.33534 12.9388C3.68 12.0175 3.1209 11.102 2.6672 10.2047C2.32807 9.53096 2.04623 8.86864 1.83198 8.21664C1.51347 7.23691 1.33474 6.2801 1.38859 5.31298C1.41723 4.83056 1.51118 4.34127 1.69908 3.86573C1.88583 3.39133 2.1734 2.93413 2.55492 2.55484C3.00632 2.10222 3.56428 1.78481 4.13141 1.60376C4.52094 1.47886 4.91507 1.41354 5.30804 1.38948C4.85091 3.03611 4.89101 4.60024 5.21753 6.03144H5.21639L5.21868 6.03259Z" stroke="white" stroke-width="1.2" mask="url(#path-1-inside-1_13775_25284)"/>
</svg>
