<svg width="18" height="18" viewBox="0 0 18 18" fill="none" xmlns="http://www.w3.org/2000/svg">
<circle cx="9" cy="9" r="8.5" stroke="#2EE09A"/>
<path d="M10.456 8.99949C10.456 9.8039 9.80391 10.456 8.99949 10.456C8.19508 10.456 7.54297 9.8039 7.54297 8.99949C7.54297 8.19508 8.19508 7.54297 8.99949 7.54297C9.80391 7.54297 10.456 8.19508 10.456 8.99949Z" stroke="#2EE09A"/>
<mask id="path-3-inside-1_13807_33098" fill="white">
<path fill-rule="evenodd" clip-rule="evenodd" d="M7.96418 3.13086H10.0358V4.63249C10.1204 4.65248 10.2041 4.67487 10.2868 4.69958L11.0373 3.3997L12.8313 4.43551L12.0803 5.73639C12.1431 5.79568 12.2041 5.85675 12.2634 5.91954L13.5654 5.16785L14.6012 6.96192L13.3006 7.71284C13.3255 7.79619 13.3481 7.88057 13.3682 7.96588H14.8698V10.0375H13.3678C13.3478 10.1219 13.3255 10.2055 13.3008 10.288L14.6015 11.0389L13.5657 12.833L12.264 12.0815C12.2047 12.1442 12.1436 12.2053 12.0809 12.2646L12.8323 13.5661L11.0382 14.6019L10.2876 13.3017C10.2046 13.3265 10.1207 13.349 10.0358 13.3691V14.8703H7.96418V13.3693C7.87926 13.3492 7.79528 13.3267 7.7123 13.3019L6.96214 14.6013L5.16807 13.5655L5.91885 12.2651C5.856 12.2057 5.79486 12.1446 5.73552 12.0818L4.43493 12.8327L3.39912 11.0386L4.69853 10.2884C4.67382 10.2057 4.65143 10.1221 4.63143 10.0375H3.12988V7.96588H4.63101C4.65115 7.88052 4.67373 7.79611 4.69867 7.71272L3.39888 6.96228L4.43468 5.16821L5.73586 5.91945C5.79508 5.85674 5.85609 5.79575 5.9188 5.73654L5.168 4.43611L6.96207 3.4003L7.71224 4.69964C7.79524 4.67483 7.87924 4.65237 7.96418 4.63231V3.13086Z"/>
</mask>
<path d="M10.0358 3.13086H11.0358V2.13086H10.0358V3.13086ZM7.96418 3.13086V2.13086H6.96418V3.13086H7.96418ZM10.0358 4.63249H9.03579V5.42372L9.80582 5.60569L10.0358 4.63249ZM10.2868 4.69958L10.0005 5.65772L10.7577 5.88398L11.1528 5.19958L10.2868 4.69958ZM11.0373 3.3997L11.5373 2.53368L10.6712 2.03368L10.1712 2.8997L11.0373 3.3997ZM12.8313 4.43551L13.6973 4.93551L14.1973 4.06948L13.3313 3.56948L12.8313 4.43551ZM12.0803 5.73639L11.2142 5.23639L10.819 5.92093L11.3938 6.46355L12.0803 5.73639ZM12.2634 5.91954L11.5364 6.60614L12.079 7.18072L12.7634 6.78557L12.2634 5.91954ZM13.5654 5.16785L14.4314 4.66785L13.9314 3.80183L13.0654 4.30183L13.5654 5.16785ZM14.6012 6.96192L15.1012 7.82795L15.9672 7.32795L15.4672 6.46192L14.6012 6.96192ZM13.3006 7.71284L12.8006 6.84681L12.116 7.24203L12.3425 7.99932L13.3006 7.71284ZM13.3682 7.96588L12.3949 8.19556L12.5767 8.96588H13.3682V7.96588ZM14.8698 7.96588H15.8698V6.96588H14.8698V7.96588ZM14.8698 10.0375V11.0375H15.8698V10.0375H14.8698ZM13.3678 10.0375V9.03749H12.5766L12.3946 9.8074L13.3678 10.0375ZM13.3008 10.288L12.3427 10.0017L12.1164 10.7589L12.8008 11.154L13.3008 10.288ZM14.6015 11.0389L15.4675 11.5389L15.9675 10.6729L15.1015 10.1729L14.6015 11.0389ZM13.5657 12.833L13.0657 13.699L13.9317 14.199L14.4317 13.333L13.5657 12.833ZM12.264 12.0815L12.764 11.2154L12.0794 10.8202L11.5368 11.395L12.264 12.0815ZM12.0809 12.2646L11.3943 11.5376L10.8197 12.0802L11.2149 12.7646L12.0809 12.2646ZM12.8323 13.5661L13.3323 14.4321L14.1983 13.9321L13.6983 13.0661L12.8323 13.5661ZM11.0382 14.6019L10.1722 15.1019L10.6722 15.9679L11.5382 15.4679L11.0382 14.6019ZM10.2876 13.3017L11.1536 12.8017L10.7584 12.1172L10.0011 12.3437L10.2876 13.3017ZM10.0358 13.3691L9.80582 12.3959L9.03579 12.5778V13.3691H10.0358ZM10.0358 14.8703V15.8703H11.0358V14.8703H10.0358ZM7.96418 14.8703H6.96418V15.8703H7.96418V14.8703ZM7.96418 13.3693H8.96418V12.5779L8.19398 12.396L7.96418 13.3693ZM7.7123 13.3019L7.99864 12.3438L7.24143 12.1175L6.84627 12.8019L7.7123 13.3019ZM6.96214 14.6013L6.46214 15.4673L7.32816 15.9673L7.82816 15.1013L6.96214 14.6013ZM5.16807 13.5655L4.30204 13.0655L3.80204 13.9315L4.66807 14.4315L5.16807 13.5655ZM5.91885 12.2651L6.78487 12.7651L7.18008 12.0806L6.60534 11.5379L5.91885 12.2651ZM5.73552 12.0818L6.46261 11.3952L5.91999 10.8206L5.23552 11.2157L5.73552 12.0818ZM4.43493 12.8327L3.56891 13.3327L4.0689 14.1987L4.93493 13.6987L4.43493 12.8327ZM3.39912 11.0386L2.89912 10.1726L2.0331 10.6726L2.5331 11.5386L3.39912 11.0386ZM4.69853 10.2884L5.19853 11.1544L5.883 10.7592L5.65664 10.002L4.69853 10.2884ZM4.63143 10.0375L5.6046 9.8074L5.42257 9.03749H4.63143V10.0375ZM3.12988 10.0375H2.12988V11.0375H3.12988V10.0375ZM3.12988 7.96588V6.96588H2.12988V7.96588H3.12988ZM4.63101 7.96588V8.96588H5.42248L5.60427 8.19557L4.63101 7.96588ZM4.69867 7.71272L5.65675 7.99923L5.88322 7.24192L5.19867 6.84669L4.69867 7.71272ZM3.39888 6.96228L2.53285 6.46228L2.03285 7.32831L2.89888 7.82831L3.39888 6.96228ZM4.43468 5.16821L4.93468 4.30219L4.06866 3.80219L3.56866 4.66821L4.43468 5.16821ZM5.73586 5.91945L5.23586 6.78547L5.92025 7.18061L6.46287 6.60607L5.73586 5.91945ZM5.9188 5.73654L6.60531 6.46366L7.18003 5.92104L6.78483 5.23654L5.9188 5.73654ZM5.168 4.43611L4.668 3.57008L3.80198 4.07008L4.30198 4.93611L5.168 4.43611ZM6.96207 3.4003L7.8281 2.9003L7.3281 2.03428L6.46207 2.53428L6.96207 3.4003ZM7.71224 4.69964L6.84622 5.19964L7.24138 5.88408L7.9986 5.65776L7.71224 4.69964ZM7.96418 4.63231L8.19399 5.60555L8.96418 5.42369V4.63231H7.96418ZM10.0358 2.13086H7.96418V4.13086H10.0358V2.13086ZM11.0358 4.63249V3.13086H9.03579V4.63249H11.0358ZM10.5731 3.74144C10.4718 3.71119 10.3694 3.68377 10.2658 3.65929L9.80582 5.60569C9.87144 5.62119 9.93634 5.63856 10.0005 5.65772L10.5731 3.74144ZM10.1712 2.8997L9.42074 4.19958L11.1528 5.19958L11.9033 3.8997L10.1712 2.8997ZM13.3313 3.56948L11.5373 2.53368L10.5373 4.26573L12.3313 5.30153L13.3313 3.56948ZM12.9463 6.23639L13.6973 4.93551L11.9653 3.93551L11.2142 5.23639L12.9463 6.23639ZM12.9905 5.23294C12.918 5.15625 12.8434 5.08164 12.7667 5.00923L11.3938 6.46355C11.4427 6.50971 11.4902 6.55726 11.5364 6.60614L12.9905 5.23294ZM13.0654 4.30183L11.7634 5.05352L12.7634 6.78557L14.0654 6.03388L13.0654 4.30183ZM15.4672 6.46192L14.4314 4.66785L12.6994 5.66785L13.7352 7.46192L15.4672 6.46192ZM13.8006 8.57887L15.1012 7.82795L14.1012 6.0959L12.8006 6.84681L13.8006 8.57887ZM14.3415 7.73619C14.3168 7.63173 14.2892 7.52842 14.2587 7.42636L12.3425 7.99932C12.3618 8.06397 12.3793 8.1294 12.3949 8.19556L14.3415 7.73619ZM14.8698 6.96588H13.3682V8.96588H14.8698V6.96588ZM15.8698 10.0375V7.96588H13.8698V10.0375H15.8698ZM13.3678 11.0375H14.8698V9.03749H13.3678V11.0375ZM14.2589 10.5743C14.2891 10.4733 14.3165 10.371 14.3409 10.2676L12.3946 9.8074C12.3791 9.8729 12.3618 9.93768 12.3427 10.0017L14.2589 10.5743ZM15.1015 10.1729L13.8008 9.42197L12.8008 11.154L14.1015 11.905L15.1015 10.1729ZM14.4317 13.333L15.4675 11.5389L13.7355 10.5389L12.6996 12.333L14.4317 13.333ZM11.764 12.9475L13.0657 13.699L14.0657 11.967L12.764 11.2154L11.764 12.9475ZM12.7675 12.9916C12.8442 12.9192 12.9187 12.8446 12.9911 12.768L11.5368 11.395C11.4907 11.4439 11.4431 11.4914 11.3943 11.5376L12.7675 12.9916ZM13.6983 13.0661L12.9469 11.7646L11.2149 12.7646L11.9663 14.0661L13.6983 13.0661ZM11.5382 15.4679L13.3323 14.4321L12.3323 12.7L10.5382 13.7358L11.5382 15.4679ZM9.42157 13.8017L10.1722 15.1019L11.9042 14.1019L11.1536 12.8017L9.42157 13.8017ZM10.2658 14.3423C10.3697 14.3177 10.4725 14.2902 10.5741 14.2598L10.0011 12.3437C9.93677 12.3629 9.87166 12.3803 9.80582 12.3959L10.2658 14.3423ZM11.0358 14.8703V13.3691H9.03579V14.8703H11.0358ZM7.96418 15.8703H10.0358V13.8703H7.96418V15.8703ZM6.96418 13.3693V14.8703H8.96418V13.3693H6.96418ZM7.42596 14.2601C7.52757 14.2904 7.6304 14.3179 7.73438 14.3425L8.19398 12.396C8.12812 12.3805 8.06299 12.363 7.99864 12.3438L7.42596 14.2601ZM7.82816 15.1013L8.57832 13.8019L6.84627 12.8019L6.09611 14.1013L7.82816 15.1013ZM4.66807 14.4315L6.46214 15.4673L7.46214 13.7352L5.66807 12.6994L4.66807 14.4315ZM5.05282 11.7651L4.30204 13.0655L6.03409 14.0655L6.78487 12.7651L5.05282 11.7651ZM5.00843 12.7683C5.08091 12.8451 5.15558 12.9197 5.23235 12.9922L6.60534 11.5379C6.55641 11.4917 6.50881 11.4441 6.46261 11.3952L5.00843 12.7683ZM4.93493 13.6987L6.23552 12.9478L5.23552 11.2157L3.93493 11.9666L4.93493 13.6987ZM2.5331 11.5386L3.56891 13.3327L5.30096 12.3327L4.26515 10.5386L2.5331 11.5386ZM4.19853 9.42235L2.89912 10.1726L3.89912 11.9046L5.19853 11.1544L4.19853 9.42235ZM3.65826 10.2676C3.68275 10.3711 3.71016 10.4736 3.74042 10.5748L5.65664 10.002C5.63748 9.93788 5.62011 9.873 5.6046 9.8074L3.65826 10.2676ZM3.12988 11.0375H4.63143V9.03749H3.12988V11.0375ZM2.12988 7.96588V10.0375H4.12988V7.96588H2.12988ZM4.63101 6.96588H3.12988V8.96588H4.63101V6.96588ZM3.7406 7.4262C3.71005 7.52833 3.68241 7.63169 3.65774 7.73619L5.60427 8.19557C5.6199 8.12936 5.63741 8.0639 5.65675 7.99923L3.7406 7.4262ZM2.89888 7.82831L4.19867 8.57874L5.19867 6.84669L3.89888 6.09626L2.89888 7.82831ZM3.56866 4.66821L2.53285 6.46228L4.2649 7.46228L5.30071 5.66821L3.56866 4.66821ZM6.23586 5.05342L4.93468 4.30219L3.93468 6.03424L5.23586 6.78547L6.23586 5.05342ZM5.2323 5.00941C5.1557 5.08173 5.08118 5.15624 5.00885 5.23282L6.46287 6.60607C6.50898 6.55725 6.55648 6.50976 6.60531 6.46366L5.2323 5.00941ZM6.78483 5.23654L6.03403 3.93611L4.30198 4.93611L5.05278 6.23653L6.78483 5.23654ZM5.668 5.30213L7.46207 4.26633L6.46207 2.53428L4.668 3.57008L5.668 5.30213ZM6.09605 3.9003L6.84622 5.19964L8.57827 4.19964L7.8281 2.9003L6.09605 3.9003ZM7.73438 3.65907C7.63038 3.68363 7.52752 3.71114 7.42589 3.74152L7.9986 5.65776C8.06296 5.63853 8.1281 5.6211 8.19399 5.60555L7.73438 3.65907ZM6.96418 3.13086V4.63231H8.96418V3.13086H6.96418Z" fill="#2EE09A" mask="url(#path-3-inside-1_13807_33098)"/>
</svg>
