<svg width="31" height="23" viewBox="0 0 31 23" fill="none" xmlns="http://www.w3.org/2000/svg">
<g clip-path="url(#clip0_13155_25977)">
<path d="M14.04 12.8898C13.96 12.8898 13.88 12.8898 13.79 12.8798C13.26 12.8198 12.79 12.5498 12.46 12.1298L10.61 9.7698C10.28 9.3498 10.14 8.8298 10.2 8.2998C10.26 7.7698 10.53 7.2998 10.95 6.9698L19.29 0.429799C19.71 0.0997989 20.24 -0.0502011 20.76 0.0197989L24.97 0.529799C25.78 0.629799 26.44 1.1998 26.65 1.9798C26.87 2.7598 26.6 3.5898 25.96 4.0898L15.26 12.4598C14.9 12.7398 14.48 12.8798 14.03 12.8798L14.04 12.8898ZM20.52 1.9998L12.18 8.5198L14.03 10.8798L24.74 2.5098L20.53 1.9998H20.52Z" fill="#A9B6BF"/>
<path d="M26.44 22.2302C25.85 22.2302 25.26 21.9702 24.86 21.4702L16.85 11.2302C16.17 10.3602 16.32 9.10025 17.19 8.42025L19.55 6.57025C20.42 5.89025 21.68 6.04025 22.36 6.91025L30.37 17.1502C30.7 17.5702 30.85 18.0903 30.78 18.6203C30.71 19.1503 30.45 19.6203 30.03 19.9503L27.67 21.8002C27.3 22.0902 26.87 22.2202 26.44 22.2202V22.2302ZM20.78 8.15025L18.42 10.0002L26.43 20.2402L28.79 18.3902L20.78 8.15025Z" fill="#A9B6BF"/>
<path d="M12.32 11.9395L12.46 12.1195C12.64 12.3495 12.86 12.5295 13.11 12.6595C12.97 12.2695 12.74 12.0495 12.32 11.9495V11.9395Z" fill="#A9B6BF"/>
<path d="M26.66 1.9798C26.44 1.1998 25.78 0.629799 24.98 0.529799L20.77 0.0197989C20.24 -0.0502011 19.72 0.0997989 19.3 0.429799L11.49 6.5398C12.18 6.6998 12.78 7.1498 13.15 7.7798L20.53 2.0098L24.74 2.5198L14.04 10.8898L12.35 8.7298L12.25 8.7598C12.1 8.7998 11.92 8.7398 11.83 8.5898C11.45 7.9998 10.97 7.7998 10.31 7.8698C10.26 7.9998 10.23 8.1398 10.21 8.2898C10.15 8.8198 10.29 9.3398 10.62 9.7598L11.11 10.3898C13.13 10.1498 14.29 10.5298 14.76 12.2798C14.8 12.4298 14.82 12.5698 14.84 12.7198C14.99 12.6498 15.15 12.5798 15.28 12.4798L25.98 4.1098C26.62 3.6098 26.89 2.7798 26.67 1.9998L26.66 1.9798Z" fill="#A9B6BF"/>
<path d="M13.8 12.8694C13.56 12.8394 13.33 12.7594 13.12 12.6494C13.14 12.6994 13.16 12.7394 13.17 12.7994C13.39 13.6294 12.84 14.3994 11.88 14.6494C10.57 14.9994 9.96002 14.5494 9.60002 13.8094C9.49002 13.6194 9.31002 13.5494 9.16002 13.5894L8.30002 13.8194C8.10002 13.8694 7.99002 14.0694 8.04002 14.2794V14.3294C8.60002 15.5794 9.66002 16.2994 11.4 16.1094L11.74 17.3594C11.8 17.5694 11.99 17.6794 12.26 17.6694L13.02 17.4694C13.22 17.4194 13.33 17.2194 13.31 16.9394L12.97 15.6894C14.26 15.0894 14.97 13.9294 14.83 12.6894C14.58 12.7994 14.32 12.8694 14.05 12.8694C13.97 12.8694 13.89 12.8694 13.8 12.8594V12.8694Z" fill="#A9B6BF"/>
<path d="M10.85 10.4101C9.28001 10.6101 8.87001 10.2701 8.67001 9.54008C8.47001 8.81008 8.85001 8.21008 9.86001 7.94008C10.02 7.90008 10.16 7.88008 10.3 7.87008C10.42 7.51008 10.65 7.19008 10.95 6.95008L11.48 6.54008C11.15 6.46008 10.8 6.44008 10.44 6.50008L10.1 5.25008C10.04 5.04008 9.85001 4.93008 9.58001 4.94008L8.82001 5.14008C8.62001 5.19008 8.51001 5.39008 8.53001 5.67008L8.85001 6.87008C7.39001 7.48008 6.71001 8.78008 7.06001 10.0901C7.52001 11.8101 8.71001 12.2201 10.9 11.9101C11.52 11.8601 11.97 11.8701 12.3 11.9501L11.08 10.3901C10.99 10.4001 10.91 10.4001 10.82 10.4201L10.85 10.4101Z" fill="#A9B6BF"/>
<path d="M10.3 7.87004C10.96 7.80004 11.44 8.00004 11.82 8.59004C11.91 8.73004 12.09 8.80004 12.24 8.76004L12.34 8.73004L12.18 8.53004L13.14 7.78004C12.76 7.15004 12.16 6.71004 11.48 6.54004L10.95 6.95004C10.64 7.19004 10.42 7.51004 10.3 7.87004Z" fill="#A9B6BF"/>
<path fill-rule="evenodd" clip-rule="evenodd" d="M19.89 14.1103C18.91 17.7103 15.74 20.4603 11.81 20.7203C6.85 21.0603 2.56 17.3103 2.22 12.3503C1.88 7.40028 5.63 3.11028 10.59 2.77028C12.22 2.66028 13.77 2.99028 15.14 3.65028L17 2.40028C15.11 1.22028 12.85 0.610281 10.45 0.770281C4.39 1.19028 -0.189996 6.43028 0.230004 12.4903C0.640004 18.5503 5.89 23.1303 11.95 22.7203C16.17 22.4303 19.68 19.8003 21.28 16.1703L19.89 14.1103Z" fill="#A9B6BF"/>
</g>
<defs>
<clipPath id="clip0_13155_25977">
<rect width="30.6" height="22.75" fill="white" transform="translate(0.200012)"/>
</clipPath>
</defs>
</svg>
