<svg width="22" height="24" viewBox="0 0 22 24" fill="none" xmlns="http://www.w3.org/2000/svg">
<path d="M1.58789 14.7773C1.58789 12.8917 1.58789 11.9489 2.17368 11.3631C2.75946 10.7773 3.70227 10.7773 5.58789 10.7773H16.4114C18.297 10.7773 19.2398 10.7773 19.8256 11.3631C20.4114 11.9489 20.4114 12.8917 20.4114 14.7773V16.9996C20.4114 19.828 20.4114 21.2422 19.5327 22.1209C18.6541 22.9996 17.2398 22.9996 14.4114 22.9996H7.58789C4.75946 22.9996 3.34525 22.9996 2.46657 22.1209C1.58789 21.2422 1.58789 19.828 1.58789 16.9996V14.7773Z" stroke="#111931" stroke-width="2"/>
<path d="M13.1659 3.06564V3.06564C11.1448 1.43157 8.18071 1.74439 6.54664 3.76541V3.76541C4.91257 5.78644 5.22733 8.75035 7.24836 10.3844V10.3844" stroke="#111931" stroke-width="2" stroke-linecap="round"/>
<ellipse cx="10.9994" cy="15.2232" rx="2.35294" ry="2.22222" fill="#111931"/>
<path d="M10 18.556C10 19.1083 10.4477 19.556 11 19.556C11.5523 19.556 12 19.1083 12 18.556H10ZM10 15.2227V18.556H12V15.2227H10Z" fill="#111931"/>
</svg>
